<svg width="1920" height="612" viewBox="0 0 1920 612" fill="none" xmlns="http://www.w3.org/2000/svg">
<rect width="1920" height="612" fill="#FFF1FF"/>
<path d="M777 0H1920V612H581L777 0Z" fill="black"/>
<path d="M125.43 259.75C122.148 261.641 118.07 262.586 113.195 262.586C107.789 262.586 103.523 261.094 100.398 258.109C97.2891 255.109 95.7344 250.984 95.7344 245.734C95.7344 240.453 97.4375 236.148 100.844 232.82C104.25 229.492 108.781 227.828 114.438 227.828C118 227.828 121.141 228.32 123.859 229.305V236.406C121.266 234.906 118.094 234.156 114.344 234.156C111.203 234.156 108.641 235.18 106.656 237.227C104.688 239.258 103.703 241.977 103.703 245.383C103.703 248.836 104.586 251.508 106.352 253.398C108.133 255.289 110.531 256.234 113.547 256.234C115.359 256.234 116.797 255.977 117.859 255.461V248.898H111.133V242.852H125.43V259.75ZM154.245 252.109H138.588C138.838 255.594 141.034 257.336 145.174 257.336C147.815 257.336 150.135 256.711 152.135 255.461V260.805C149.917 261.992 147.034 262.586 143.487 262.586C139.612 262.586 136.604 261.516 134.463 259.375C132.323 257.219 131.252 254.219 131.252 250.375C131.252 246.391 132.409 243.234 134.721 240.906C137.034 238.578 139.877 237.414 143.252 237.414C146.752 237.414 149.456 238.453 151.362 240.531C153.284 242.609 154.245 245.43 154.245 248.992V252.109ZM147.377 247.562C147.377 244.125 145.987 242.406 143.206 242.406C142.018 242.406 140.987 242.898 140.112 243.883C139.252 244.867 138.729 246.094 138.542 247.562H147.377ZM174.599 261.719C173.505 262.297 171.857 262.586 169.653 262.586C164.435 262.586 161.825 259.875 161.825 254.453V243.461H157.935V238H161.825V232.82L169.208 230.711V238H174.599V243.461H169.208V253.164C169.208 255.664 170.2 256.914 172.185 256.914C172.966 256.914 173.771 256.688 174.599 256.234V261.719ZM221.002 228.391L210.057 250.047V262H202.487V250.188L191.823 228.391H200.471L205.885 240.93C205.979 241.164 206.237 242.078 206.658 243.672H206.752C206.955 242.547 207.198 241.664 207.479 241.023L212.987 228.391H221.002ZM232.661 262.586C228.661 262.586 225.512 261.469 223.216 259.234C220.934 256.984 219.794 253.938 219.794 250.094C219.794 246.125 220.981 243.023 223.356 240.789C225.731 238.539 228.942 237.414 232.989 237.414C236.973 237.414 240.098 238.539 242.364 240.789C244.63 243.023 245.762 245.984 245.762 249.672C245.762 253.656 244.591 256.805 242.247 259.117C239.919 261.43 236.723 262.586 232.661 262.586ZM232.848 243.086C231.098 243.086 229.739 243.688 228.77 244.891C227.802 246.094 227.317 247.797 227.317 250C227.317 254.609 229.177 256.914 232.895 256.914C236.442 256.914 238.216 254.547 238.216 249.812C238.216 245.328 236.427 243.086 232.848 243.086ZM274.812 262H267.429V258.344H267.312C265.484 261.172 263.038 262.586 259.976 262.586C254.413 262.586 251.632 259.219 251.632 252.484V238H259.015V251.828C259.015 255.219 260.359 256.914 263.046 256.914C264.374 256.914 265.437 256.453 266.234 255.531C267.031 254.594 267.429 253.328 267.429 251.734V238H274.812V262ZM298.166 244.68C297.275 244.195 296.236 243.953 295.049 243.953C293.439 243.953 292.182 244.547 291.275 245.734C290.369 246.906 289.916 248.508 289.916 250.539V262H282.51V238H289.916V242.453H290.01C291.182 239.203 293.291 237.578 296.338 237.578C297.119 237.578 297.728 237.672 298.166 237.859V244.68ZM346.093 259.75C342.812 261.641 338.733 262.586 333.858 262.586C328.452 262.586 324.187 261.094 321.062 258.109C317.952 255.109 316.398 250.984 316.398 245.734C316.398 240.453 318.101 236.148 321.507 232.82C324.913 229.492 329.444 227.828 335.101 227.828C338.663 227.828 341.804 228.32 344.523 229.305V236.406C341.929 234.906 338.757 234.156 335.007 234.156C331.866 234.156 329.304 235.18 327.319 237.227C325.351 239.258 324.366 241.977 324.366 245.383C324.366 248.836 325.249 251.508 327.015 253.398C328.796 255.289 331.194 256.234 334.21 256.234C336.023 256.234 337.46 255.977 338.523 255.461V248.898H331.796V242.852H346.093V259.75ZM357.095 234.203C355.845 234.203 354.822 233.836 354.025 233.102C353.228 232.352 352.83 231.438 352.83 230.359C352.83 229.25 353.228 228.344 354.025 227.641C354.822 226.938 355.845 226.586 357.095 226.586C358.361 226.586 359.384 226.938 360.166 227.641C360.962 228.344 361.361 229.25 361.361 230.359C361.361 231.484 360.962 232.406 360.166 233.125C359.384 233.844 358.361 234.203 357.095 234.203ZM360.752 262H353.345V238H360.752V262ZM384.082 232.141C383.129 231.766 382.215 231.578 381.34 231.578C378.965 231.578 377.777 232.867 377.777 235.445V238H383.262V243.461H377.777V262H370.395V243.461H366.363V238H370.395V235.023C370.395 232.289 371.285 230.086 373.067 228.414C374.848 226.742 377.27 225.906 380.332 225.906C381.832 225.906 383.082 226.062 384.082 226.375V232.141ZM403.733 261.719C402.639 262.297 400.991 262.586 398.788 262.586C393.569 262.586 390.96 259.875 390.96 254.453V243.461H387.069V238H390.96V232.82L398.342 230.711V238H403.733V243.461H398.342V253.164C398.342 255.664 399.335 256.914 401.319 256.914C402.1 256.914 402.905 256.688 403.733 256.234V261.719ZM454.355 262H446.105L443.715 254.523H431.762L429.394 262H421.191L433.426 228.391H442.402L454.355 262ZM441.98 248.711L438.371 237.414C438.105 236.57 437.918 235.562 437.808 234.391H437.621C437.543 235.375 437.348 236.352 437.035 237.32L433.379 248.711H441.98ZM474.92 244.68C474.03 244.195 472.991 243.953 471.803 243.953C470.194 243.953 468.936 244.547 468.03 245.734C467.123 246.906 466.67 248.508 466.67 250.539V262H459.264V238H466.67V242.453H466.764C467.936 239.203 470.045 237.578 473.092 237.578C473.873 237.578 474.483 237.672 474.92 237.859V244.68ZM495.743 261.719C494.649 262.297 493.001 262.586 490.798 262.586C485.579 262.586 482.97 259.875 482.97 254.453V243.461H479.079V238H482.97V232.82L490.353 230.711V238H495.743V243.461H490.353V253.164C490.353 255.664 491.345 256.914 493.329 256.914C494.11 256.914 494.915 256.688 495.743 256.234V261.719ZM516.811 262V228.391H529.045C532.795 228.391 535.678 229.078 537.693 230.453C539.709 231.828 540.717 233.766 540.717 236.266C540.717 238.078 540.1 239.664 538.865 241.023C537.647 242.383 536.084 243.328 534.178 243.859V243.953C536.568 244.25 538.475 245.133 539.897 246.602C541.334 248.07 542.053 249.859 542.053 251.969C542.053 255.047 540.951 257.492 538.748 259.305C536.545 261.102 533.537 262 529.725 262H516.811ZM524.381 233.969V241.938H527.709C529.272 241.938 530.498 241.562 531.389 240.812C532.295 240.047 532.748 239 532.748 237.672C532.748 235.203 530.904 233.969 527.217 233.969H524.381ZM524.381 247.562V256.422H528.483C530.233 256.422 531.6 256.016 532.584 255.203C533.584 254.391 534.084 253.281 534.084 251.875C534.084 250.531 533.592 249.477 532.608 248.711C531.639 247.945 530.279 247.562 528.529 247.562H524.381ZM559.758 262.586C555.758 262.586 552.61 261.469 550.313 259.234C548.032 256.984 546.891 253.938 546.891 250.094C546.891 246.125 548.079 243.023 550.454 240.789C552.829 238.539 556.04 237.414 560.087 237.414C564.071 237.414 567.196 238.539 569.462 240.789C571.727 243.023 572.86 245.984 572.86 249.672C572.86 253.656 571.688 256.805 569.344 259.117C567.016 261.43 563.821 262.586 559.758 262.586ZM559.946 243.086C558.196 243.086 556.837 243.688 555.868 244.891C554.899 246.094 554.415 247.797 554.415 250C554.415 254.609 556.274 256.914 559.993 256.914C563.54 256.914 565.313 254.547 565.313 249.812C565.313 245.328 563.524 243.086 559.946 243.086ZM601.3 238L593.378 249.625L601.253 262H592.722L589.253 255.531C588.972 255.016 588.636 254.289 588.245 253.352H588.152C587.917 254.008 587.597 254.711 587.191 255.461L583.698 262H575.191L583.3 250.047L575.683 238H584.261L587.683 244.727C588.136 245.617 588.456 246.367 588.644 246.977H588.737C588.987 246.242 589.323 245.477 589.745 244.68L593.237 238H601.3ZM127.398 326H119.148L116.758 318.523H104.805L102.438 326H94.2344L106.469 292.391H115.445L127.398 326ZM115.023 312.711L111.414 301.414C111.148 300.57 110.961 299.562 110.852 298.391H110.664C110.586 299.375 110.391 300.352 110.078 301.32L106.422 312.711H115.023ZM145.831 325.719C144.737 326.297 143.088 326.586 140.885 326.586C135.667 326.586 133.057 323.875 133.057 318.453V307.461H129.167V302H133.057V296.82L140.44 294.711V302H145.831V307.461H140.44V317.164C140.44 319.664 141.432 320.914 143.417 320.914C144.198 320.914 145.002 320.688 145.831 320.234V325.719ZM117.273 362.555H105.414V370.805H116.312V376.945H105.414V390H97.8438V356.391H117.273V362.555ZM139.198 372.68C138.307 372.195 137.268 371.953 136.081 371.953C134.471 371.953 133.213 372.547 132.307 373.734C131.401 374.906 130.948 376.508 130.948 378.539V390H123.542V366H130.948V370.453H131.042C132.213 367.203 134.323 365.578 137.37 365.578C138.151 365.578 138.76 365.672 139.198 365.859V372.68ZM155.357 390.586C151.357 390.586 148.208 389.469 145.911 387.234C143.63 384.984 142.489 381.938 142.489 378.094C142.489 374.125 143.677 371.023 146.052 368.789C148.427 366.539 151.638 365.414 155.685 365.414C159.669 365.414 162.794 366.539 165.06 368.789C167.325 371.023 168.458 373.984 168.458 377.672C168.458 381.656 167.286 384.805 164.943 387.117C162.614 389.43 159.419 390.586 155.357 390.586ZM155.544 371.086C153.794 371.086 152.435 371.688 151.466 372.891C150.497 374.094 150.013 375.797 150.013 378C150.013 382.609 151.872 384.914 155.591 384.914C159.138 384.914 160.911 382.547 160.911 377.812C160.911 373.328 159.122 371.086 155.544 371.086ZM212.812 390H205.429V376.312C205.429 372.828 204.148 371.086 201.586 371.086C200.367 371.086 199.375 371.609 198.609 372.656C197.843 373.703 197.461 375.008 197.461 376.57V390H190.054V376.172C190.054 372.781 188.797 371.086 186.281 371.086C185.015 371.086 184 371.586 183.234 372.586C182.484 373.586 182.109 374.945 182.109 376.664V390H174.703V366H182.109V369.75H182.203C182.968 368.469 184.039 367.43 185.414 366.633C186.804 365.82 188.32 365.414 189.961 365.414C193.351 365.414 195.672 366.906 196.922 369.891C198.75 366.906 201.437 365.414 204.984 365.414C210.203 365.414 212.812 368.633 212.812 375.07V390ZM235.544 390V356.391H247.45C259.387 356.391 265.356 361.852 265.356 372.773C265.356 378.008 263.723 382.188 260.458 385.312C257.208 388.438 252.872 390 247.45 390H235.544ZM243.114 362.555V383.859H246.864C250.145 383.859 252.716 382.875 254.575 380.906C256.45 378.938 257.387 376.258 257.387 372.867C257.387 369.664 256.458 367.148 254.598 365.32C252.755 363.477 250.161 362.555 246.817 362.555H243.114ZM293.21 380.109H277.554C277.804 383.594 279.999 385.336 284.14 385.336C286.781 385.336 289.101 384.711 291.101 383.461V388.805C288.882 389.992 285.999 390.586 282.452 390.586C278.577 390.586 275.57 389.516 273.429 387.375C271.288 385.219 270.218 382.219 270.218 378.375C270.218 374.391 271.374 371.234 273.687 368.906C275.999 366.578 278.843 365.414 282.218 365.414C285.718 365.414 288.421 366.453 290.327 368.531C292.249 370.609 293.21 373.43 293.21 376.992V380.109ZM286.343 375.562C286.343 372.125 284.952 370.406 282.171 370.406C280.984 370.406 279.952 370.898 279.077 371.883C278.218 372.867 277.695 374.094 277.507 375.562H286.343ZM317.244 389.133C315.572 390.102 313.158 390.586 310.002 390.586C306.314 390.586 303.33 389.469 301.049 387.234C298.768 385 297.627 382.117 297.627 378.586C297.627 374.508 298.846 371.297 301.283 368.953C303.736 366.594 307.01 365.414 311.103 365.414C313.932 365.414 315.978 365.789 317.244 366.539V372.82C315.697 371.664 313.971 371.086 312.064 371.086C309.939 371.086 308.252 371.711 307.002 372.961C305.768 374.195 305.15 375.906 305.15 378.094C305.15 380.219 305.744 381.891 306.932 383.109C308.119 384.312 309.752 384.914 311.83 384.914C313.674 384.914 315.478 384.336 317.244 383.18V389.133ZM339.942 355.641V390H332.559V363.984C332.153 364.344 331.668 364.688 331.106 365.016C330.559 365.328 329.973 365.617 329.348 365.883C328.723 366.133 328.075 366.352 327.403 366.539C326.731 366.711 326.067 366.836 325.411 366.914V360.68C327.333 360.117 329.145 359.398 330.848 358.523C332.551 357.648 334.09 356.688 335.465 355.641H339.942ZM352.819 389.133V382.805C355.116 384.211 357.562 384.914 360.155 384.914C362.108 384.914 363.632 384.453 364.726 383.531C365.835 382.594 366.39 381.328 366.39 379.734C366.39 376.406 364.038 374.742 359.335 374.742C357.601 374.742 355.601 374.875 353.335 375.141L354.601 356.391H372.39V362.438H360.249L359.78 369.164C360.983 369.07 362.023 369.023 362.898 369.023C366.351 369.023 369.054 369.93 371.007 371.742C372.96 373.555 373.937 375.992 373.937 379.055C373.937 382.445 372.773 385.219 370.444 387.375C368.116 389.516 364.96 390.586 360.976 390.586C357.741 390.586 355.023 390.102 352.819 389.133ZM409.418 379.781H396.598V374.602H409.418V379.781ZM431.952 376.664C431.952 381.164 430.905 384.609 428.811 387C426.733 389.391 423.717 390.586 419.764 390.586C417.999 390.586 416.366 390.281 414.866 389.672V382.57C416.163 383.555 417.616 384.047 419.225 384.047C422.678 384.047 424.405 381.484 424.405 376.359V356.391H431.952V376.664ZM459.525 390H452.517V386.555H452.423C450.814 389.242 448.431 390.586 445.275 390.586C442.947 390.586 441.111 389.93 439.767 388.617C438.439 387.289 437.775 385.523 437.775 383.32C437.775 378.664 440.533 375.977 446.048 375.258L452.564 374.391C452.564 371.766 451.142 370.453 448.298 370.453C445.439 370.453 442.72 371.305 440.142 373.008V367.43C441.173 366.898 442.579 366.43 444.361 366.023C446.158 365.617 447.79 365.414 449.259 365.414C456.103 365.414 459.525 368.828 459.525 375.656V390ZM452.564 380.25V378.633L448.204 379.195C445.798 379.508 444.595 380.594 444.595 382.453C444.595 383.297 444.884 383.992 445.462 384.539C446.056 385.07 446.853 385.336 447.853 385.336C449.243 385.336 450.376 384.859 451.251 383.906C452.126 382.938 452.564 381.719 452.564 380.25ZM490.004 390H482.621V376.664C482.621 372.945 481.293 371.086 478.637 371.086C477.355 371.086 476.301 371.578 475.473 372.562C474.644 373.547 474.23 374.797 474.23 376.312V390H466.824V366H474.23V369.797H474.324C476.09 366.875 478.66 365.414 482.035 365.414C487.348 365.414 490.004 368.711 490.004 375.305V390ZM511.657 388.898V382.453C513.907 384.094 516.532 384.914 519.532 384.914C521.423 384.914 522.892 384.508 523.938 383.695C525.001 382.883 525.532 381.75 525.532 380.297C525.532 378.797 524.876 377.641 523.563 376.828C522.267 376.016 520.478 375.609 518.196 375.609H515.079V369.938H517.962C522.337 369.938 524.524 368.484 524.524 365.578C524.524 362.844 522.845 361.477 519.485 361.477C517.235 361.477 515.048 362.203 512.923 363.656V357.609C515.282 356.422 518.032 355.828 521.173 355.828C524.61 355.828 527.282 356.602 529.188 358.148C531.11 359.695 532.071 361.703 532.071 364.172C532.071 368.562 529.845 371.312 525.392 372.422V372.539C527.767 372.836 529.642 373.703 531.017 375.141C532.392 376.562 533.079 378.312 533.079 380.391C533.079 383.531 531.931 386.016 529.634 387.844C527.337 389.672 524.165 390.586 520.118 390.586C516.649 390.586 513.829 390.023 511.657 388.898ZM556.738 372.68C555.847 372.195 554.808 371.953 553.621 371.953C552.011 371.953 550.753 372.547 549.847 373.734C548.941 374.906 548.488 376.508 548.488 378.539V390H541.082V366H548.488V370.453H548.582C549.753 367.203 551.863 365.578 554.91 365.578C555.691 365.578 556.3 365.672 556.738 365.859V372.68ZM584.943 390H577.537V386.695H577.443C575.756 389.289 573.279 390.586 570.014 390.586C567.014 390.586 564.6 389.531 562.772 387.422C560.943 385.297 560.029 382.336 560.029 378.539C560.029 374.57 561.037 371.391 563.053 369C565.068 366.609 567.709 365.414 570.975 365.414C574.068 365.414 576.225 366.523 577.443 368.742H577.537V354.469H584.943V390ZM577.678 378.328V376.523C577.678 374.961 577.225 373.664 576.318 372.633C575.412 371.602 574.233 371.086 572.779 371.086C571.139 371.086 569.858 371.734 568.936 373.031C568.014 374.312 567.553 376.078 567.553 378.328C567.553 380.438 567.998 382.062 568.889 383.203C569.779 384.344 571.014 384.914 572.592 384.914C574.092 384.914 575.311 384.312 576.248 383.109C577.201 381.906 577.678 380.312 577.678 378.328Z" fill="black"/>
<path d="M182.554 291.641V326H175.172V299.984C174.765 300.344 174.281 300.688 173.718 301.016C173.172 301.328 172.586 301.617 171.961 301.883C171.336 302.133 170.687 302.352 170.015 302.539C169.343 302.711 168.679 302.836 168.023 302.914V296.68C169.945 296.117 171.757 295.398 173.461 294.523C175.164 293.648 176.703 292.688 178.078 291.641H182.554ZM205.721 326.586C197.721 326.586 193.721 320.969 193.721 309.734C193.721 303.906 194.799 299.469 196.955 296.422C199.127 293.359 202.268 291.828 206.377 291.828C214.19 291.828 218.096 297.539 218.096 308.961C218.096 314.648 217.026 319.008 214.885 322.039C212.76 325.07 209.705 326.586 205.721 326.586ZM206.049 297.477C202.846 297.477 201.244 301.5 201.244 309.547C201.244 317.125 202.815 320.914 205.955 320.914C209.018 320.914 210.549 317.008 210.549 309.195C210.549 301.383 209.049 297.477 206.049 297.477ZM231.231 309.43C228.841 309.43 226.911 308.672 225.442 307.156C223.989 305.641 223.262 303.602 223.262 301.039C223.262 298.242 224.036 296.023 225.583 294.383C227.145 292.742 229.223 291.922 231.817 291.922C234.302 291.922 236.239 292.664 237.63 294.148C239.036 295.633 239.739 297.719 239.739 300.406C239.739 303.172 238.966 305.367 237.419 306.992C235.872 308.617 233.809 309.43 231.231 309.43ZM231.677 296.047C229.395 296.047 228.255 297.633 228.255 300.805C228.255 303.805 229.341 305.305 231.512 305.305C233.731 305.305 234.841 303.742 234.841 300.617C234.841 297.57 233.786 296.047 231.677 296.047ZM255.77 292.391L233.88 326H228.161L250.005 292.391H255.77ZM252.161 326.469C249.77 326.469 247.841 325.711 246.372 324.195C244.919 322.68 244.192 320.641 244.192 318.078C244.192 315.281 244.966 313.062 246.512 311.422C248.075 309.781 250.153 308.961 252.747 308.961C255.247 308.961 257.192 309.695 258.583 311.164C259.973 312.633 260.669 314.711 260.669 317.398C260.669 320.164 259.895 322.367 258.348 324.008C256.802 325.648 254.739 326.469 252.161 326.469ZM252.536 313.086C250.27 313.086 249.137 314.672 249.137 317.844C249.137 320.844 250.239 322.344 252.442 322.344C254.661 322.344 255.77 320.781 255.77 317.656C255.77 316.203 255.473 315.078 254.88 314.281C254.286 313.484 253.505 313.086 252.536 313.086ZM296.971 326.586C292.158 326.586 288.236 325.023 285.205 321.898C282.174 318.758 280.658 314.672 280.658 309.641C280.658 304.328 282.197 300.031 285.275 296.75C288.353 293.469 292.432 291.828 297.51 291.828C302.307 291.828 306.182 293.398 309.135 296.539C312.103 299.68 313.588 303.82 313.588 308.961C313.588 314.242 312.049 318.5 308.971 321.734C305.908 324.969 301.908 326.586 296.971 326.586ZM297.299 298.344C294.643 298.344 292.533 299.344 290.971 301.344C289.408 303.328 288.627 305.961 288.627 309.242C288.627 312.57 289.408 315.203 290.971 317.141C292.533 319.078 294.58 320.047 297.111 320.047C299.721 320.047 301.791 319.109 303.322 317.234C304.853 315.344 305.619 312.727 305.619 309.383C305.619 305.898 304.877 303.188 303.393 301.25C301.908 299.312 299.877 298.344 297.299 298.344ZM340.059 298.555H328.2V306.805H339.098V312.945H328.2V326H320.629V292.391H340.059V298.555ZM366.483 298.555H354.624V306.805H365.523V312.945H354.624V326H347.054V292.391H366.483V298.555Z" fill="#FF2424"/>
<path d="M1132.16 158.76L1131.76 161H1109.84L1110.24 158.76L1114.72 158.2C1115.63 158.093 1116.19 157.88 1116.4 157.56C1116.61 157.187 1116.88 156.093 1117.2 154.28L1124.4 113.32C1124.72 111.507 1124.83 110.44 1124.72 110.12C1124.61 109.747 1124.16 109.507 1123.36 109.4L1119.04 108.84L1119.44 106.6H1141.36L1140.96 108.84L1136.48 109.4C1135.63 109.507 1135.07 109.747 1134.8 110.12C1134.59 110.44 1134.32 111.507 1134 113.32L1130.72 132.12H1151.76L1155.04 113.32C1155.36 111.507 1155.47 110.44 1155.36 110.12C1155.25 109.747 1154.8 109.507 1154 109.4L1149.68 108.84L1150.08 106.6H1172L1171.6 108.84L1167.12 109.4C1166.27 109.507 1165.71 109.747 1165.44 110.12C1165.23 110.44 1164.96 111.507 1164.64 113.32L1157.44 154.28C1157.12 156.093 1157.01 157.187 1157.12 157.56C1157.23 157.88 1157.68 158.093 1158.48 158.2L1162.8 158.76L1162.4 161H1140.48L1140.88 158.76L1145.36 158.2C1146.27 158.093 1146.83 157.88 1147.04 157.56C1147.25 157.187 1147.52 156.093 1147.84 154.28L1151.2 134.92H1130.24L1126.8 154.28C1126.48 156.093 1126.37 157.187 1126.48 157.56C1126.59 157.88 1127.04 158.093 1127.84 158.2L1132.16 158.76ZM1210.01 161.4C1207.83 161.4 1206.04 160.813 1204.65 159.64C1203.32 158.413 1202.52 156.68 1202.25 154.44C1200.55 157.267 1198.68 159.213 1196.65 160.28C1194.63 161.293 1192.55 161.8 1190.41 161.8C1187.16 161.8 1184.52 160.813 1182.49 158.84C1180.52 156.867 1179.19 154.2 1178.49 150.84C1177.85 147.48 1177.91 143.773 1178.65 139.72L1178.97 137.96C1179.72 133.96 1181.03 130.6 1182.89 127.88C1184.76 125.16 1186.97 123.107 1189.53 121.72C1192.15 120.333 1194.89 119.64 1197.77 119.64C1201.88 119.64 1205 121.027 1207.13 123.8C1208.36 123.48 1209.61 123.053 1210.89 122.52C1212.23 121.987 1213.48 121.293 1214.65 120.44H1216.81L1211.77 149C1211.08 152.733 1210.76 155.213 1210.81 156.44C1210.87 157.613 1211.29 158.2 1212.09 158.2C1212.84 158.2 1213.64 157.773 1214.49 156.92C1215.35 156.067 1216.12 154.627 1216.81 152.6L1219.93 154.36C1218.76 156.813 1217.35 158.6 1215.69 159.72C1214.04 160.84 1212.15 161.4 1210.01 161.4ZM1188.25 141.16C1187.24 147.027 1187.16 151.4 1188.01 154.28C1188.92 157.107 1190.39 158.52 1192.41 158.52C1193.16 158.52 1194.07 158.28 1195.13 157.8C1196.25 157.267 1197.45 156.253 1198.73 154.76C1200.07 153.213 1201.4 150.947 1202.73 147.96L1206.25 127.8C1205.4 125.933 1204.28 124.653 1202.89 123.96C1201.56 123.213 1200.2 122.84 1198.81 122.84C1196.04 122.84 1193.88 124.093 1192.33 126.6C1190.84 129.107 1189.72 132.573 1188.97 137L1188.25 141.16ZM1249.37 161.8C1245.26 161.8 1242.17 160.467 1240.09 157.8L1236.49 178.04H1227.29L1236.25 127.16C1236.57 125.347 1236.67 124.28 1236.57 123.96C1236.46 123.587 1236.01 123.347 1235.21 123.24L1230.89 122.68L1231.29 120.44H1246.17L1244.73 128.36C1246.59 125.053 1248.54 122.787 1250.57 121.56C1252.59 120.28 1254.7 119.64 1256.89 119.64C1260.14 119.64 1262.75 120.627 1264.73 122.6C1266.7 124.573 1268.01 127.24 1268.65 130.6C1269.34 133.907 1269.31 137.613 1268.57 141.72L1268.25 143.48C1267.55 147.427 1266.25 150.787 1264.33 153.56C1262.46 156.28 1260.22 158.333 1257.61 159.72C1255.05 161.107 1252.3 161.8 1249.37 161.8ZM1254.73 122.92C1253.98 122.92 1253.05 123.24 1251.93 123.88C1250.81 124.52 1249.55 125.773 1248.17 127.64C1246.83 129.453 1245.42 132.173 1243.93 135.8L1240.81 153.64C1241.71 155.453 1242.83 156.733 1244.17 157.48C1245.55 158.227 1246.94 158.6 1248.33 158.6C1251.15 158.6 1253.31 157.347 1254.81 154.84C1256.35 152.28 1257.5 148.813 1258.25 144.44L1258.97 140.28C1259.98 134.413 1260.03 130.067 1259.13 127.24C1258.27 124.36 1256.81 122.92 1254.73 122.92ZM1301.2 161.8C1297.09 161.8 1294 160.467 1291.92 157.8L1288.32 178.04H1279.12L1288.08 127.16C1288.4 125.347 1288.5 124.28 1288.4 123.96C1288.29 123.587 1287.84 123.347 1287.04 123.24L1282.72 122.68L1283.12 120.44H1298L1296.56 128.36C1298.42 125.053 1300.37 122.787 1302.4 121.56C1304.42 120.28 1306.53 119.64 1308.72 119.64C1311.97 119.64 1314.58 120.627 1316.56 122.6C1318.53 124.573 1319.84 127.24 1320.48 130.6C1321.17 133.907 1321.14 137.613 1320.4 141.72L1320.08 143.48C1319.38 147.427 1318.08 150.787 1316.16 153.56C1314.29 156.28 1312.05 158.333 1309.44 159.72C1306.88 161.107 1304.13 161.8 1301.2 161.8ZM1306.56 122.92C1305.81 122.92 1304.88 123.24 1303.76 123.88C1302.64 124.52 1301.38 125.773 1300 127.64C1298.66 129.453 1297.25 132.173 1295.76 135.8L1292.64 153.64C1293.54 155.453 1294.66 156.733 1296 157.48C1297.38 158.227 1298.77 158.6 1300.16 158.6C1302.98 158.6 1305.14 157.347 1306.64 154.84C1308.18 152.28 1309.33 148.813 1310.08 144.44L1310.8 140.28C1311.81 134.413 1311.86 130.067 1310.96 127.24C1310.1 124.36 1308.64 122.92 1306.56 122.92ZM1366.95 160.28C1366.42 163.533 1365.3 166.573 1363.59 169.4C1361.94 172.227 1359.59 174.493 1356.55 176.2C1353.56 177.96 1349.8 178.84 1345.27 178.84C1341.06 178.84 1337.99 177.773 1336.07 175.64C1334.15 173.507 1333.24 170.707 1333.35 167.24L1337.91 166.12C1337.7 169.8 1338.26 172.387 1339.59 173.88C1340.98 175.427 1342.82 176.2 1345.11 176.2C1348.26 176.2 1350.9 175.08 1353.03 172.84C1355.16 170.653 1356.71 166.733 1357.67 161.08L1358.87 154.2C1356.84 156.813 1354.68 158.733 1352.39 159.96C1350.15 161.187 1347.8 161.8 1345.35 161.8C1341.72 161.8 1339 160.547 1337.19 158.04C1335.43 155.48 1334.95 151.933 1335.75 147.4L1339.27 127.16C1339.59 125.347 1339.7 124.28 1339.59 123.96C1339.48 123.587 1339 123.347 1338.15 123.24L1333.83 122.68L1334.23 120.44H1349.67L1344.95 147.32C1344.31 151 1344.28 153.693 1344.87 155.4C1345.46 157.053 1346.5 157.88 1347.99 157.88C1348.95 157.88 1350.07 157.587 1351.35 157C1352.68 156.36 1354.1 155.267 1355.59 153.72C1357.14 152.12 1358.66 149.853 1360.15 146.92L1364.79 120.44H1373.99L1366.95 160.28ZM1426.9 158.76L1426.5 161H1404.58L1404.98 158.76L1409.46 158.2C1410.36 158.093 1410.92 157.88 1411.14 157.56C1411.35 157.187 1411.62 156.093 1411.94 154.28L1419.14 113.32C1419.46 111.507 1419.56 110.44 1419.46 110.12C1419.35 109.747 1418.9 109.507 1418.1 109.4L1413.78 108.84L1414.18 106.6H1436.1L1435.7 108.84L1431.22 109.4C1430.36 109.507 1429.8 109.747 1429.54 110.12C1429.32 110.44 1429.06 111.507 1428.74 113.32L1425.46 132.12H1446.5L1449.78 113.32C1450.1 111.507 1450.2 110.44 1450.1 110.12C1449.99 109.747 1449.54 109.507 1448.74 109.4L1444.42 108.84L1444.82 106.6H1466.74L1466.34 108.84L1461.86 109.4C1461 109.507 1460.44 109.747 1460.18 110.12C1459.96 110.44 1459.7 111.507 1459.38 113.32L1452.18 154.28C1451.86 156.093 1451.75 157.187 1451.86 157.56C1451.96 157.88 1452.42 158.093 1453.22 158.2L1457.54 158.76L1457.14 161H1435.22L1435.62 158.76L1440.1 158.2C1441 158.093 1441.56 157.88 1441.78 157.56C1441.99 157.187 1442.26 156.093 1442.58 154.28L1445.94 134.92H1424.98L1421.54 154.28C1421.22 156.093 1421.11 157.187 1421.22 157.56C1421.32 157.88 1421.78 158.093 1422.58 158.2L1426.9 158.76ZM1509.39 141.48L1509.07 143.16C1507.95 149.027 1505.6 153.613 1502.03 156.92C1498.51 160.173 1493.9 161.8 1488.19 161.8C1484.3 161.8 1481.1 160.84 1478.59 158.92C1476.08 157 1474.35 154.387 1473.39 151.08C1472.43 147.773 1472.32 144.067 1473.07 139.96L1473.39 138.28C1474.51 132.413 1476.83 127.853 1480.35 124.6C1483.92 121.293 1488.54 119.64 1494.19 119.64C1498.14 119.64 1501.36 120.627 1503.87 122.6C1506.43 124.52 1508.19 127.133 1509.15 130.44C1510.11 133.693 1510.19 137.373 1509.39 141.48ZM1499.95 139.08C1501.07 133.053 1501.04 128.787 1499.87 126.28C1498.75 123.72 1496.91 122.44 1494.35 122.44C1491.58 122.44 1489.28 123.64 1487.47 126.04C1485.66 128.44 1484.27 132.253 1483.31 137.48L1482.43 142.36C1481.36 148.387 1481.39 152.68 1482.51 155.24C1483.68 157.747 1485.52 159 1488.03 159C1490.86 159 1493.18 157.8 1494.99 155.4C1496.8 153 1498.16 149.187 1499.07 143.96L1499.95 139.08ZM1525.36 104.04L1525.76 101.8H1541.12L1532.88 148.92C1532.19 152.707 1531.87 155.213 1531.92 156.44C1531.98 157.613 1532.4 158.2 1533.2 158.2C1533.95 158.2 1534.75 157.773 1535.6 156.92C1536.46 156.067 1537.23 154.627 1537.92 152.6L1541.04 154.36C1539.87 156.813 1538.46 158.6 1536.8 159.72C1535.15 160.84 1533.26 161.4 1531.12 161.4C1528.19 161.4 1526.03 160.387 1524.64 158.36C1523.26 156.28 1522.88 153.373 1523.52 149.64L1530.72 108.52C1531.04 106.707 1531.15 105.64 1531.04 105.32C1530.94 104.947 1530.48 104.707 1529.68 104.6L1525.36 104.04ZM1564.39 113.4C1562.84 113.4 1561.61 112.973 1560.71 112.12C1559.85 111.267 1559.43 110.093 1559.43 108.6C1559.43 106.947 1559.96 105.533 1561.03 104.36C1562.09 103.187 1563.53 102.6 1565.35 102.6C1566.89 102.6 1568.09 103.027 1568.95 103.88C1569.85 104.733 1570.31 105.907 1570.31 107.4C1570.31 109.053 1569.77 110.467 1568.71 111.64C1567.69 112.813 1566.25 113.4 1564.39 113.4ZM1551.59 122.68L1551.99 120.44H1567.35L1562.39 149C1561.75 152.733 1561.43 155.213 1561.43 156.44C1561.48 157.613 1561.91 158.2 1562.71 158.2C1563.45 158.2 1564.25 157.773 1565.11 156.92C1565.96 156.067 1566.73 154.627 1567.43 152.6L1570.55 154.36C1569.37 156.813 1567.96 158.6 1566.31 159.72C1564.65 160.84 1562.76 161.4 1560.63 161.4C1557.69 161.4 1555.53 160.387 1554.15 158.36C1552.76 156.28 1552.39 153.373 1553.03 149.64L1556.95 127.16C1557.27 125.347 1557.37 124.28 1557.27 123.96C1557.16 123.587 1556.71 123.347 1555.91 123.24L1551.59 122.68ZM1612.44 161.4C1610.09 161.4 1608.22 160.707 1606.84 159.32C1605.45 157.933 1604.7 155.987 1604.6 153.48C1602.78 156.627 1600.86 158.813 1598.84 160.04C1596.86 161.213 1594.78 161.8 1592.6 161.8C1589.4 161.8 1586.78 160.813 1584.76 158.84C1582.78 156.867 1581.45 154.2 1580.76 150.84C1580.12 147.48 1580.17 143.773 1580.92 139.72L1581.24 137.96C1581.98 133.96 1583.29 130.6 1585.16 127.88C1587.02 125.16 1589.26 123.107 1591.88 121.72C1594.49 120.333 1597.24 119.64 1600.12 119.64C1604.12 119.64 1607.21 120.947 1609.4 123.56L1612.04 108.52C1612.36 106.707 1612.46 105.64 1612.36 105.32C1612.25 104.947 1611.8 104.707 1611 104.6L1606.76 104.04L1607.08 101.8H1622.52L1614.2 149C1613.5 152.733 1613.18 155.213 1613.24 156.44C1613.29 157.613 1613.72 158.2 1614.52 158.2C1615.26 158.2 1616.06 157.773 1616.92 156.92C1617.77 156.067 1618.54 154.627 1619.24 152.6L1622.36 154.36C1621.18 156.813 1619.77 158.6 1618.12 159.72C1616.46 160.84 1614.57 161.4 1612.44 161.4ZM1590.52 141.16C1589.5 147.027 1589.42 151.4 1590.28 154.28C1591.18 157.107 1592.68 158.52 1594.76 158.52C1595.5 158.52 1596.44 158.2 1597.56 157.56C1598.68 156.92 1599.9 155.667 1601.24 153.8C1602.62 151.933 1604.06 149.213 1605.56 145.64L1608.68 127.8C1607.77 125.933 1606.62 124.653 1605.24 123.96C1603.9 123.213 1602.54 122.84 1601.16 122.84C1598.33 122.84 1596.14 124.093 1594.6 126.6C1593.1 129.107 1591.98 132.573 1591.24 137L1590.52 141.16ZM1664.26 161.4C1662.08 161.4 1660.29 160.813 1658.9 159.64C1657.57 158.413 1656.77 156.68 1656.5 154.44C1654.8 157.267 1652.93 159.213 1650.9 160.28C1648.88 161.293 1646.8 161.8 1644.66 161.8C1641.41 161.8 1638.77 160.813 1636.74 158.84C1634.77 156.867 1633.44 154.2 1632.74 150.84C1632.1 147.48 1632.16 143.773 1632.9 139.72L1633.22 137.96C1633.97 133.96 1635.28 130.6 1637.14 127.88C1639.01 125.16 1641.22 123.107 1643.78 121.72C1646.4 120.333 1649.14 119.64 1652.02 119.64C1656.13 119.64 1659.25 121.027 1661.38 123.8C1662.61 123.48 1663.86 123.053 1665.14 122.52C1666.48 121.987 1667.73 121.293 1668.9 120.44H1671.06L1666.02 149C1665.33 152.733 1665.01 155.213 1665.06 156.44C1665.12 157.613 1665.54 158.2 1666.34 158.2C1667.09 158.2 1667.89 157.773 1668.74 156.92C1669.6 156.067 1670.37 154.627 1671.06 152.6L1674.18 154.36C1673.01 156.813 1671.6 158.6 1669.94 159.72C1668.29 160.84 1666.4 161.4 1664.26 161.4ZM1642.5 141.16C1641.49 147.027 1641.41 151.4 1642.26 154.28C1643.17 157.107 1644.64 158.52 1646.66 158.52C1647.41 158.52 1648.32 158.28 1649.38 157.8C1650.5 157.267 1651.7 156.253 1652.98 154.76C1654.32 153.213 1655.65 150.947 1656.98 147.96L1660.5 127.8C1659.65 125.933 1658.53 124.653 1657.14 123.96C1655.81 123.213 1654.45 122.84 1653.06 122.84C1650.29 122.84 1648.13 124.093 1646.58 126.6C1645.09 129.107 1643.97 132.573 1643.22 137L1642.5 141.16ZM1717.54 160.28C1717 163.533 1715.88 166.573 1714.18 169.4C1712.52 172.227 1710.18 174.493 1707.14 176.2C1704.15 177.96 1700.39 178.84 1695.86 178.84C1691.64 178.84 1688.58 177.773 1686.66 175.64C1684.74 173.507 1683.83 170.707 1683.94 167.24L1688.5 166.12C1688.28 169.8 1688.84 172.387 1690.18 173.88C1691.56 175.427 1693.4 176.2 1695.7 176.2C1698.84 176.2 1701.48 175.08 1703.62 172.84C1705.75 170.653 1707.3 166.733 1708.26 161.08L1709.46 154.2C1707.43 156.813 1705.27 158.733 1702.98 159.96C1700.74 161.187 1698.39 161.8 1695.94 161.8C1692.31 161.8 1689.59 160.547 1687.78 158.04C1686.02 155.48 1685.54 151.933 1686.34 147.4L1689.86 127.16C1690.18 125.347 1690.28 124.28 1690.18 123.96C1690.07 123.587 1689.59 123.347 1688.74 123.24L1684.42 122.68L1684.82 120.44H1700.26L1695.54 147.32C1694.9 151 1694.87 153.693 1695.46 155.4C1696.04 157.053 1697.08 157.88 1698.58 157.88C1699.54 157.88 1700.66 157.587 1701.94 157C1703.27 156.36 1704.68 155.267 1706.18 153.72C1707.72 152.12 1709.24 149.853 1710.74 146.92L1715.38 120.44H1724.58L1717.54 160.28Z" fill="white"/>
<path d="M1293.03 249.997C1289.95 249.997 1287.25 249.539 1284.92 248.624C1282.59 247.75 1280.78 246.315 1279.49 244.318C1278.2 242.322 1277.56 239.659 1277.56 236.331C1277.56 233.003 1278.1 229.758 1279.18 226.597C1280.3 223.394 1281.84 220.419 1283.8 217.674C1285.75 214.928 1288.04 212.515 1290.66 210.435C1293.32 208.355 1296.19 206.733 1299.27 205.568C1302.35 204.403 1305.55 203.821 1308.88 203.821C1312.58 203.821 1315.6 204.445 1317.93 205.693C1320.26 206.941 1321.96 208.646 1323.04 210.81C1324.17 212.931 1324.73 215.323 1324.73 217.986C1324.73 221.522 1323.88 225.224 1322.17 229.093C1320.42 233.045 1318.14 236.602 1315.31 239.763C1312.48 242.925 1309.17 245.421 1305.39 247.251C1301.64 249.082 1297.52 249.997 1293.03 249.997ZM1298.71 246.69C1301.16 246.024 1303.58 244.797 1305.95 243.008C1308.32 241.219 1310.46 239.077 1312.37 236.581C1314.29 234.085 1315.81 231.464 1316.93 228.718C1318.68 224.517 1319.55 220.565 1319.55 216.862C1319.55 216.28 1319.51 215.718 1319.43 215.178C1319.38 214.637 1319.32 214.117 1319.24 213.618C1318.78 211.08 1317.72 209.291 1316.06 208.251C1314.39 207.211 1312.52 206.691 1310.44 206.691C1308.28 206.691 1306.07 207.128 1303.83 208.002C1301.58 208.834 1299.64 209.874 1298.02 211.122C1296.03 212.702 1294.17 214.512 1292.47 216.55C1290.76 218.589 1289.33 220.752 1288.16 223.04C1287.16 225.037 1286.35 227.221 1285.73 229.592C1285.15 231.922 1284.86 234.189 1284.86 236.394C1284.86 238.39 1285.15 240.221 1285.73 241.885C1286.31 243.549 1287.27 244.901 1288.6 245.941C1289.93 246.939 1291.7 247.438 1293.9 247.438C1295.32 247.438 1296.92 247.189 1298.71 246.69ZM1331.04 248.374C1329.88 248.374 1329.01 247.958 1328.42 247.126C1327.84 246.253 1327.55 245.088 1327.55 243.632C1327.55 243.424 1327.55 243.216 1327.55 243.008C1327.55 242.8 1327.57 242.592 1327.61 242.384C1327.82 240.803 1328.17 239.014 1328.67 237.018C1329.21 235.021 1329.84 232.92 1330.55 230.715C1330.96 229.467 1331.48 227.907 1332.11 226.035C1332.77 224.122 1333.54 222.083 1334.41 219.92C1335.29 217.715 1336.24 215.531 1337.28 213.368C1338.37 211.205 1339.55 209.25 1340.84 207.502C1342.13 205.714 1343.48 204.278 1344.9 203.197C1346.35 202.115 1347.89 201.574 1349.52 201.574C1350.85 201.574 1351.76 201.907 1352.26 202.573C1352.76 203.197 1353.01 203.946 1353.01 204.819C1353.01 205.734 1352.84 206.67 1352.51 207.627C1352.18 208.542 1351.84 209.312 1351.51 209.936C1350.76 211.434 1349.79 213.118 1348.58 214.99C1347.37 216.862 1346.1 218.61 1344.77 220.232C1343.98 221.272 1343 222.437 1341.84 223.726C1340.68 225.016 1339.57 226.202 1338.53 227.283C1337.53 228.365 1336.81 229.114 1336.35 229.53L1335.35 232.4C1335.06 233.19 1334.77 234.126 1334.48 235.208C1334.23 236.29 1334 237.371 1333.79 238.453C1333.62 239.493 1333.48 240.408 1333.35 241.198C1333.31 241.365 1333.29 241.531 1333.29 241.698C1333.29 241.864 1333.29 242.01 1333.29 242.134C1333.29 243.382 1333.77 244.006 1334.73 244.006C1335.31 244.006 1336.04 243.736 1336.91 243.195C1337.74 242.696 1338.53 242.051 1339.28 241.261C1340.07 240.429 1340.63 239.805 1340.97 239.389C1341.8 238.307 1342.59 237.163 1343.34 235.957C1344.09 234.709 1344.73 233.565 1345.27 232.525C1345.48 232.192 1345.63 232.026 1345.71 232.026C1345.96 232.026 1346.08 232.379 1346.08 233.086C1346.08 233.419 1346.02 233.814 1345.9 234.272C1345.81 234.688 1345.67 235.083 1345.46 235.458C1344.88 236.456 1344.19 237.558 1343.4 238.765C1342.61 239.971 1341.8 241.136 1340.97 242.259C1340.34 243.091 1339.47 243.986 1338.35 244.942C1337.22 245.899 1336.02 246.71 1334.73 247.376C1333.44 248.042 1332.21 248.374 1331.04 248.374ZM1337.6 225.973C1339.68 223.518 1341.78 220.898 1343.9 218.11C1346.06 215.282 1347.85 212.411 1349.27 209.499C1349.35 209.291 1349.54 208.875 1349.83 208.251C1350.12 207.627 1350.39 206.941 1350.64 206.192C1350.89 205.402 1351.01 204.736 1351.01 204.195C1351.01 203.488 1350.74 203.134 1350.2 203.134H1349.76C1349.22 203.134 1348.58 203.509 1347.83 204.258C1347.12 205.006 1346.4 206.005 1345.65 207.253C1344.69 208.834 1343.75 210.664 1342.84 212.744C1341.92 214.782 1341.03 216.946 1340.16 219.234C1339.28 221.522 1338.43 223.768 1337.6 225.973ZM1349.96 248.374C1348.87 248.374 1347.98 247.875 1347.27 246.877C1346.61 245.837 1346.36 244.235 1346.52 242.072C1346.61 241.157 1346.82 239.992 1347.15 238.578C1347.48 237.163 1347.92 235.645 1348.46 234.022C1349.04 232.358 1349.69 230.757 1350.39 229.218C1351.1 227.637 1351.87 226.243 1352.7 225.037C1353.16 224.413 1353.62 224.038 1354.07 223.914C1354.57 223.747 1355.47 223.664 1356.76 223.664H1359.75C1359.05 224.662 1358.3 225.91 1357.51 227.408C1356.72 228.906 1355.99 230.403 1355.32 231.901C1354.66 233.357 1354.14 234.584 1353.76 235.582C1353.68 235.874 1353.51 236.394 1353.26 237.142C1353.01 237.85 1352.79 238.64 1352.58 239.514C1352.37 240.387 1352.27 241.198 1352.27 241.947C1352.27 242.613 1352.39 243.174 1352.64 243.632C1352.89 244.09 1353.35 244.318 1354.01 244.318C1354.8 244.277 1355.66 243.778 1356.57 242.821C1357.49 241.864 1358.4 240.637 1359.32 239.139C1360.23 237.642 1361.13 236.082 1362 234.459C1362.91 232.795 1363.73 231.256 1364.43 229.842C1365.18 228.386 1365.81 227.262 1366.31 226.472C1366.93 225.515 1367.59 224.683 1368.3 223.976C1369.01 223.227 1369.82 222.853 1370.74 222.853C1371.07 222.853 1371.51 222.874 1372.05 222.915C1372.63 222.915 1373.19 222.915 1373.73 222.915C1374.31 222.915 1374.71 222.894 1374.92 222.853C1374.67 223.019 1374.38 223.352 1374.04 223.851C1373.71 224.35 1373.38 224.87 1373.04 225.411C1372.75 225.91 1372.52 226.326 1372.36 226.659C1371.28 228.822 1370.22 231.006 1369.18 233.211C1368.18 235.374 1367.43 237.434 1366.93 239.389C1366.72 240.138 1366.62 240.782 1366.62 241.323C1366.62 242.571 1367.03 243.195 1367.87 243.195C1368.45 243.195 1369.28 242.779 1370.36 241.947C1371.19 241.282 1372 240.429 1372.79 239.389C1373.67 238.307 1374.48 237.142 1375.23 235.894C1375.98 234.646 1376.62 233.502 1377.16 232.462C1377.33 232.171 1377.47 232.026 1377.6 232.026C1377.85 232.026 1377.97 232.358 1377.97 233.024C1377.97 233.357 1377.91 233.752 1377.79 234.21C1377.7 234.626 1377.54 235.042 1377.29 235.458C1376.71 236.456 1376.02 237.558 1375.23 238.765C1374.44 239.93 1373.63 241.094 1372.79 242.259C1372.21 243.008 1371.44 243.861 1370.49 244.818C1369.53 245.774 1368.51 246.606 1367.43 247.314C1366.39 248.021 1365.37 248.374 1364.37 248.374C1363.79 248.374 1363.25 248.25 1362.75 248C1362.25 247.792 1361.83 247.355 1361.5 246.69C1361.08 245.816 1360.88 244.63 1360.88 243.133C1360.88 242.675 1360.9 242.197 1360.94 241.698C1360.98 241.157 1361.04 240.616 1361.13 240.075C1360.5 240.949 1359.84 241.76 1359.13 242.509C1358.46 243.258 1357.78 244.006 1357.07 244.755C1355.49 246.336 1354.14 247.334 1353.01 247.75C1351.93 248.166 1350.91 248.374 1349.96 248.374ZM1383.73 248.624C1381.81 248.624 1380.38 248.291 1379.42 247.626C1378.51 246.96 1378.05 245.691 1378.05 243.819C1378.05 242.446 1378.3 240.741 1378.8 238.702C1379.13 237.33 1379.61 235.562 1380.23 233.398C1380.9 231.235 1381.65 228.947 1382.48 226.534C1383.35 224.08 1384.25 221.709 1385.16 219.421C1386.08 217.091 1386.97 215.094 1387.85 213.43C1388.93 211.35 1389.78 209.894 1390.41 209.062C1391.03 208.189 1391.72 207.669 1392.46 207.502C1392.8 207.419 1393.19 207.357 1393.65 207.315C1394.15 207.274 1394.65 207.253 1395.15 207.253C1395.61 207.253 1396.15 207.253 1396.77 207.253C1397.44 207.253 1397.85 207.232 1398.02 207.19C1397.23 207.773 1396.25 209.021 1395.09 210.934C1393.92 212.806 1392.71 215.074 1391.47 217.736C1390.22 220.398 1389.03 223.206 1387.91 226.16C1386.79 229.114 1385.87 231.963 1385.16 234.709C1385.83 233.544 1386.52 232.421 1387.22 231.339C1387.93 230.258 1388.62 229.301 1389.28 228.469C1390.61 226.846 1392.03 225.494 1393.53 224.413C1395.02 223.331 1396.48 222.79 1397.89 222.79C1399.1 222.79 1400.1 223.227 1400.89 224.101C1401.72 224.974 1402.14 226.451 1402.14 228.531C1402.14 230.736 1401.66 232.962 1400.7 235.208C1399.74 237.413 1398.52 239.43 1397.02 241.261C1397.06 241.926 1397.27 242.488 1397.64 242.946C1398.02 243.362 1398.5 243.57 1399.08 243.57C1399.66 243.57 1400.24 243.362 1400.83 242.946C1401.45 242.53 1402.03 241.989 1402.57 241.323C1403.16 240.658 1403.7 240.013 1404.2 239.389C1405.03 238.307 1405.82 237.142 1406.57 235.894C1407.36 234.646 1408.02 233.502 1408.56 232.462C1408.77 232.13 1408.92 231.963 1409 231.963C1409.25 231.963 1409.37 232.317 1409.37 233.024C1409.37 233.357 1409.31 233.731 1409.19 234.147C1409.1 234.563 1408.96 234.979 1408.75 235.395C1408.25 236.227 1407.67 237.205 1407 238.328C1406.34 239.451 1405.59 240.554 1404.76 241.635C1403.97 242.717 1403.09 243.653 1402.14 244.443C1401.22 245.192 1400.22 245.67 1399.14 245.878C1399.06 245.878 1398.95 245.899 1398.83 245.941C1398.7 245.941 1398.6 245.941 1398.52 245.941C1397.81 245.941 1397.12 245.733 1396.46 245.317C1395.79 244.901 1395.31 244.298 1395.02 243.507C1394.52 244.006 1394.02 244.464 1393.53 244.88C1393.03 245.296 1392.53 245.691 1392.03 246.066C1390.86 246.856 1389.61 247.48 1388.28 247.938C1386.95 248.395 1385.43 248.624 1383.73 248.624ZM1385.16 246.378C1385.87 246.378 1386.68 246.024 1387.6 245.317C1388.55 244.568 1389.47 243.653 1390.34 242.571C1391.26 241.448 1392.03 240.366 1392.65 239.326C1393.61 237.704 1394.42 236.019 1395.09 234.272C1395.75 232.525 1396.08 231.069 1396.08 229.904C1396.08 228.864 1395.77 228.261 1395.15 228.094C1395.06 228.053 1394.96 228.032 1394.84 228.032C1394.71 228.032 1394.61 228.032 1394.52 228.032C1393.69 228.032 1392.76 228.448 1391.72 229.28C1390.97 229.862 1390.11 230.715 1389.16 231.838C1388.2 232.962 1387.26 234.23 1386.35 235.645C1385.48 237.018 1384.75 238.411 1384.17 239.826C1383.62 241.24 1383.35 242.55 1383.35 243.757C1383.35 243.923 1383.35 244.11 1383.35 244.318C1383.4 244.526 1383.44 244.734 1383.48 244.942C1383.69 245.899 1384.25 246.378 1385.16 246.378ZM1413.14 248.374C1412.06 248.374 1411.17 247.875 1410.46 246.877C1409.79 245.837 1409.54 244.235 1409.71 242.072C1409.79 241.157 1410 239.992 1410.33 238.578C1410.67 237.163 1411.1 235.645 1411.64 234.022C1412.23 232.358 1412.87 230.757 1413.58 229.218C1414.29 227.637 1415.05 226.243 1415.89 225.037C1416.34 224.413 1416.8 224.038 1417.26 223.914C1417.76 223.747 1418.65 223.664 1419.94 223.664H1422.94C1422.23 224.662 1421.48 225.91 1420.69 227.408C1419.9 228.906 1419.17 230.403 1418.51 231.901C1417.84 233.357 1417.32 234.584 1416.95 235.582C1416.86 235.874 1416.7 236.394 1416.45 237.142C1416.2 237.85 1415.97 238.64 1415.76 239.514C1415.55 240.387 1415.45 241.198 1415.45 241.947C1415.45 242.613 1415.57 243.174 1415.82 243.632C1416.07 244.09 1416.53 244.318 1417.2 244.318C1417.99 244.277 1418.84 243.778 1419.76 242.821C1420.67 241.864 1421.59 240.637 1422.5 239.139C1423.42 237.642 1424.31 236.082 1425.18 234.459C1426.1 232.795 1426.91 231.256 1427.62 229.842C1428.37 228.386 1428.99 227.262 1429.49 226.472C1430.11 225.515 1430.78 224.683 1431.49 223.976C1432.19 223.227 1433.01 222.853 1433.92 222.853C1434.25 222.853 1434.69 222.874 1435.23 222.915C1435.81 222.915 1436.37 222.915 1436.92 222.915C1437.5 222.915 1437.89 222.894 1438.1 222.853C1437.85 223.019 1437.56 223.352 1437.23 223.851C1436.89 224.35 1436.56 224.87 1436.23 225.411C1435.94 225.91 1435.71 226.326 1435.54 226.659C1434.46 228.822 1433.4 231.006 1432.36 233.211C1431.36 235.374 1430.61 237.434 1430.11 239.389C1429.91 240.138 1429.8 240.782 1429.8 241.323C1429.8 242.571 1430.22 243.195 1431.05 243.195C1431.63 243.195 1432.46 242.779 1433.55 241.947C1434.38 241.282 1435.19 240.429 1435.98 239.389C1436.85 238.307 1437.66 237.142 1438.41 235.894C1439.16 234.646 1439.81 233.502 1440.35 232.462C1440.51 232.171 1440.66 232.026 1440.78 232.026C1441.03 232.026 1441.16 232.358 1441.16 233.024C1441.16 233.357 1441.1 233.752 1440.97 234.21C1440.89 234.626 1440.72 235.042 1440.47 235.458C1439.89 236.456 1439.2 237.558 1438.41 238.765C1437.62 239.93 1436.81 241.094 1435.98 242.259C1435.4 243.008 1434.63 243.861 1433.67 244.818C1432.71 245.774 1431.69 246.606 1430.61 247.314C1429.57 248.021 1428.55 248.374 1427.56 248.374C1426.97 248.374 1426.43 248.25 1425.93 248C1425.43 247.792 1425.02 247.355 1424.69 246.69C1424.27 245.816 1424.06 244.63 1424.06 243.133C1424.06 242.675 1424.08 242.197 1424.12 241.698C1424.17 241.157 1424.23 240.616 1424.31 240.075C1423.69 240.949 1423.02 241.76 1422.31 242.509C1421.65 243.258 1420.96 244.006 1420.25 244.755C1418.67 246.336 1417.32 247.334 1416.2 247.75C1415.12 248.166 1414.1 248.374 1413.14 248.374ZM1437.93 248C1438.39 247.168 1438.91 246.107 1439.49 244.818C1440.03 243.528 1440.57 242.134 1441.11 240.637C1441.69 239.098 1442.21 237.621 1442.67 236.206C1443.71 233.003 1444.77 229.842 1445.85 226.722C1446.98 223.602 1448.1 220.898 1449.22 218.61C1449.68 217.611 1450.26 216.405 1450.97 214.99C1451.68 213.534 1452.47 212.037 1453.34 210.498C1454.26 208.958 1455.23 207.523 1456.27 206.192C1457.35 204.819 1458.5 203.717 1459.71 202.885C1460.95 202.053 1462.24 201.637 1463.57 201.637C1464.91 201.637 1465.8 201.928 1466.26 202.51C1466.76 203.093 1467.01 203.821 1467.01 204.694C1467.01 205.651 1466.8 206.67 1466.38 207.752C1465.97 208.834 1465.57 209.728 1465.2 210.435C1464.36 212.016 1463.28 213.805 1461.95 215.802C1460.66 217.757 1459.31 219.587 1457.9 221.293C1457.19 222.166 1456.34 223.165 1455.34 224.288C1454.34 225.37 1453.34 226.41 1452.34 227.408C1451.39 228.406 1450.55 229.259 1449.85 229.966L1448.72 233.086C1449.8 231.672 1450.95 230.403 1452.15 229.28C1453.36 228.157 1454.67 227.034 1456.09 225.91C1457.13 225.078 1458.21 224.454 1459.33 224.038C1460.5 223.622 1461.56 223.414 1462.51 223.414C1463.22 223.414 1463.87 223.518 1464.45 223.726C1465.07 223.934 1465.53 224.267 1465.82 224.725C1466.03 225.016 1466.17 225.328 1466.26 225.661C1466.34 225.994 1466.38 226.326 1466.38 226.659C1466.38 227.325 1466.26 227.97 1466.01 228.594C1465.47 229.883 1464.68 230.986 1463.64 231.901C1462.64 232.774 1461.49 233.44 1460.2 233.898C1459.75 234.064 1459.14 234.251 1458.39 234.459C1457.65 234.667 1456.98 234.813 1456.4 234.896C1456.48 235.478 1456.54 236.061 1456.59 236.643C1456.67 237.226 1456.75 237.808 1456.83 238.39C1457.08 239.805 1457.4 241.011 1457.77 242.01C1458.19 243.008 1458.83 243.507 1459.71 243.507C1460.5 243.507 1461.56 242.987 1462.89 241.947C1463.84 241.198 1464.68 240.346 1465.38 239.389C1466.22 238.307 1467.01 237.163 1467.75 235.957C1468.5 234.709 1469.15 233.565 1469.69 232.525C1469.86 232.234 1470 232.088 1470.13 232.088C1470.38 232.088 1470.5 232.421 1470.5 233.086C1470.5 233.461 1470.44 233.877 1470.31 234.334C1470.23 234.75 1470.06 235.166 1469.81 235.582C1469.23 236.581 1468.55 237.662 1467.75 238.827C1467.01 239.992 1466.22 241.136 1465.38 242.259C1464.93 242.883 1464.34 243.57 1463.64 244.318C1462.93 245.067 1462.18 245.754 1461.39 246.378C1460.68 246.918 1459.83 247.418 1458.83 247.875C1457.83 248.291 1456.86 248.499 1455.9 248.499C1455.15 248.499 1454.44 248.333 1453.78 248C1453.15 247.667 1452.63 247.106 1452.22 246.315C1451.76 245.442 1451.41 244.402 1451.16 243.195C1450.91 241.989 1450.78 240.782 1450.78 239.576C1450.78 238.91 1450.8 238.266 1450.84 237.642C1450.93 236.976 1451.05 236.373 1451.22 235.832C1451.43 235.125 1451.63 234.646 1451.84 234.397C1452.05 234.147 1452.32 234.022 1452.65 234.022C1453.86 233.981 1455.05 233.814 1456.21 233.523C1457.38 233.19 1458.35 232.67 1459.14 231.963C1460.1 231.131 1460.58 230.195 1460.58 229.155C1460.58 228.698 1460.41 228.302 1460.08 227.97C1459.79 227.595 1459.29 227.408 1458.58 227.408C1457.63 227.408 1456.69 227.72 1455.77 228.344C1454.86 228.968 1453.99 229.779 1453.15 230.778C1452.32 231.776 1451.55 232.816 1450.84 233.898C1450.14 234.938 1449.53 235.894 1449.03 236.768C1448.66 237.392 1448.24 238.203 1447.79 239.202C1447.33 240.2 1446.85 241.24 1446.35 242.322C1445.85 243.403 1445.35 244.381 1444.85 245.254C1444.35 246.128 1443.88 246.773 1443.42 247.189C1442.88 247.73 1442.32 248 1441.73 248H1437.93ZM1451.47 225.723C1453.55 223.31 1455.59 220.773 1457.58 218.11C1459.58 215.448 1461.29 212.723 1462.7 209.936C1462.83 209.728 1463.03 209.291 1463.32 208.626C1463.62 207.96 1463.89 207.232 1464.14 206.442C1464.43 205.651 1464.57 204.965 1464.57 204.382C1464.57 203.634 1464.28 203.259 1463.7 203.259C1463.12 203.259 1462.41 203.758 1461.58 204.757C1460.79 205.755 1459.93 207.086 1459.02 208.75C1458.15 210.373 1457.25 212.182 1456.34 214.179C1455.42 216.134 1454.55 218.131 1453.71 220.17C1452.88 222.166 1452.13 224.018 1451.47 225.723ZM1478.37 248.499C1476.46 248.499 1474.79 247.896 1473.38 246.69C1472.01 245.483 1471.32 243.549 1471.32 240.886C1471.32 238.931 1471.67 236.893 1472.38 234.771C1473.09 232.65 1474.09 230.674 1475.38 228.843C1476.71 227.013 1478.31 225.515 1480.18 224.35C1482.05 223.186 1484.15 222.603 1486.48 222.603C1488.4 222.603 1489.87 222.978 1490.91 223.726C1492 224.434 1492.76 225.39 1493.22 226.597C1493.68 227.803 1493.91 229.093 1493.91 230.466C1493.91 231.506 1493.78 232.566 1493.53 233.648C1493.33 234.688 1493.01 235.728 1492.6 236.768C1493.31 237.6 1494.2 238.016 1495.28 238.016C1496.45 238.016 1497.53 237.579 1498.53 236.706C1499.11 236.206 1499.63 235.582 1500.09 234.834C1500.59 234.043 1501.02 233.315 1501.4 232.65C1501.52 232.4 1501.67 232.275 1501.83 232.275C1502.04 232.275 1502.15 232.566 1502.15 233.149C1502.15 233.523 1502.08 233.96 1501.96 234.459C1501.88 234.958 1501.67 235.458 1501.33 235.957C1500.71 237.038 1500.07 237.87 1499.4 238.453C1498.73 238.994 1497.99 239.43 1497.15 239.763C1496.53 240.013 1495.86 240.138 1495.16 240.138C1493.87 240.138 1492.7 239.742 1491.66 238.952C1491.33 239.659 1490.91 240.387 1490.41 241.136C1489.21 243.174 1487.65 244.922 1485.73 246.378C1483.82 247.792 1481.37 248.499 1478.37 248.499ZM1480.74 246.128C1481.7 246.128 1482.61 245.816 1483.49 245.192C1484.4 244.526 1485.24 243.715 1485.98 242.758C1486.73 241.802 1487.38 240.803 1487.92 239.763C1488.5 238.723 1488.98 237.808 1489.35 237.018C1487.94 235.811 1487.23 234.293 1487.23 232.462C1487.23 231.256 1487.56 230.32 1488.23 229.654C1488.9 228.989 1489.81 228.698 1490.98 228.781C1490.93 227.824 1490.68 227.034 1490.23 226.41C1489.77 225.786 1489.02 225.474 1487.98 225.474C1487.02 225.474 1486.11 225.765 1485.24 226.347C1484.4 226.93 1483.61 227.678 1482.86 228.594C1482.16 229.467 1481.51 230.382 1480.93 231.339C1480.39 232.254 1479.93 233.086 1479.56 233.835C1479.02 234.917 1478.52 236.227 1478.06 237.766C1477.6 239.306 1477.37 240.741 1477.37 242.072C1477.37 243.237 1477.6 244.214 1478.06 245.005C1478.56 245.754 1479.45 246.128 1480.74 246.128ZM1506.34 248.374C1505.18 248.374 1504.3 247.958 1503.72 247.126C1503.14 246.253 1502.85 245.088 1502.85 243.632C1502.85 243.424 1502.85 243.216 1502.85 243.008C1502.85 242.8 1502.87 242.592 1502.91 242.384C1503.12 240.803 1503.47 239.014 1503.97 237.018C1504.51 235.021 1505.13 232.92 1505.84 230.715C1506.26 229.467 1506.78 227.907 1507.4 226.035C1508.07 224.122 1508.84 222.083 1509.71 219.92C1510.58 217.715 1511.54 215.531 1512.58 213.368C1513.66 211.205 1514.85 209.25 1516.14 207.502C1517.43 205.714 1518.78 204.278 1520.19 203.197C1521.65 202.115 1523.19 201.574 1524.81 201.574C1526.14 201.574 1527.06 201.907 1527.56 202.573C1528.06 203.197 1528.3 203.946 1528.3 204.819C1528.3 205.734 1528.14 206.67 1527.81 207.627C1527.47 208.542 1527.14 209.312 1526.81 209.936C1526.06 211.434 1525.08 213.118 1523.87 214.99C1522.67 216.862 1521.4 218.61 1520.07 220.232C1519.28 221.272 1518.3 222.437 1517.14 223.726C1515.97 225.016 1514.87 226.202 1513.83 227.283C1512.83 228.365 1512.1 229.114 1511.64 229.53L1510.65 232.4C1510.35 233.19 1510.06 234.126 1509.77 235.208C1509.52 236.29 1509.29 237.371 1509.09 238.453C1508.92 239.493 1508.77 240.408 1508.65 241.198C1508.61 241.365 1508.59 241.531 1508.59 241.698C1508.59 241.864 1508.59 242.01 1508.59 242.134C1508.59 243.382 1509.06 244.006 1510.02 244.006C1510.6 244.006 1511.33 243.736 1512.21 243.195C1513.04 242.696 1513.83 242.051 1514.58 241.261C1515.37 240.429 1515.93 239.805 1516.26 239.389C1517.09 238.307 1517.88 237.163 1518.63 235.957C1519.38 234.709 1520.03 233.565 1520.57 232.525C1520.78 232.192 1520.92 232.026 1521 232.026C1521.25 232.026 1521.38 232.379 1521.38 233.086C1521.38 233.419 1521.32 233.814 1521.19 234.272C1521.11 234.688 1520.96 235.083 1520.75 235.458C1520.17 236.456 1519.49 237.558 1518.7 238.765C1517.9 239.971 1517.09 241.136 1516.26 242.259C1515.64 243.091 1514.76 243.986 1513.64 244.942C1512.52 245.899 1511.31 246.71 1510.02 247.376C1508.73 248.042 1507.5 248.374 1506.34 248.374ZM1512.89 225.973C1514.97 223.518 1517.07 220.898 1519.19 218.11C1521.36 215.282 1523.15 212.411 1524.56 209.499C1524.64 209.291 1524.83 208.875 1525.12 208.251C1525.41 207.627 1525.68 206.941 1525.93 206.192C1526.18 205.402 1526.31 204.736 1526.31 204.195C1526.31 203.488 1526.04 203.134 1525.5 203.134H1525.06C1524.52 203.134 1523.87 203.509 1523.13 204.258C1522.42 205.006 1521.69 206.005 1520.94 207.253C1519.98 208.834 1519.05 210.664 1518.13 212.744C1517.22 214.782 1516.32 216.946 1515.45 219.234C1514.58 221.522 1513.72 223.768 1512.89 225.973ZM1541.23 248.374C1539.94 248.374 1539.04 247.875 1538.54 246.877C1538.09 245.878 1537.86 244.651 1537.86 243.195C1537.86 241.864 1537.98 240.554 1538.23 239.264C1538.36 238.682 1538.48 238.099 1538.61 237.517C1538.77 236.893 1538.96 236.248 1539.17 235.582C1538.46 236.872 1537.71 238.12 1536.92 239.326C1536.17 240.533 1535.4 241.594 1534.61 242.509C1533.28 244.131 1531.87 245.483 1530.37 246.565C1528.91 247.646 1527.46 248.187 1526 248.187C1524.84 248.187 1523.84 247.771 1523.01 246.939C1522.21 246.066 1521.82 244.568 1521.82 242.446C1521.82 240.283 1522.19 238.058 1522.94 235.77C1523.69 233.482 1524.73 231.36 1526.06 229.405C1527.44 227.408 1529.04 225.806 1530.87 224.6C1532.74 223.394 1534.78 222.79 1536.98 222.79C1537.69 222.79 1538.46 222.894 1539.29 223.102C1540.12 223.31 1540.89 223.706 1541.6 224.288C1542.31 224.829 1542.79 225.598 1543.04 226.597C1543.08 226.514 1543.12 226.451 1543.16 226.41C1543.24 226.368 1543.31 226.326 1543.35 226.285C1543.93 225.37 1544.6 224.6 1545.34 223.976C1546.09 223.352 1546.93 223.04 1547.84 223.04C1548.3 223.04 1548.94 223.061 1549.77 223.102C1550.61 223.144 1551.21 223.144 1551.58 223.102C1551.38 223.269 1551.09 223.602 1550.71 224.101C1550.38 224.6 1550.07 225.12 1549.77 225.661C1549.48 226.16 1549.25 226.555 1549.09 226.846C1547.97 229.01 1546.95 231.152 1546.03 233.274C1545.12 235.395 1544.41 237.434 1543.91 239.389C1543.78 239.805 1543.7 240.2 1543.66 240.574C1543.62 240.907 1543.6 241.24 1543.6 241.573C1543.6 242.654 1543.95 243.195 1544.66 243.195C1545.32 243.195 1546.16 242.779 1547.15 241.947C1548.61 240.782 1549.88 239.326 1550.96 237.579C1552.08 235.832 1553.06 234.147 1553.89 232.525C1554.06 232.234 1554.21 232.088 1554.33 232.088C1554.58 232.088 1554.7 232.442 1554.7 233.149C1554.7 233.482 1554.64 233.856 1554.52 234.272C1554.43 234.688 1554.29 235.083 1554.08 235.458C1553.5 236.456 1552.73 237.683 1551.77 239.139C1550.86 240.595 1549.82 242.03 1548.65 243.445C1547.49 244.818 1546.26 245.982 1544.97 246.939C1543.72 247.896 1542.47 248.374 1541.23 248.374ZM1528.81 242.946C1528.93 242.987 1529.12 243.008 1529.37 243.008C1530.16 243.008 1531.01 242.675 1531.93 242.01C1532.84 241.344 1533.76 240.491 1534.67 239.451C1535.59 238.37 1536.4 237.288 1537.11 236.206C1538.94 233.294 1540.29 231.11 1541.16 229.654C1542.04 228.198 1542.54 227.366 1542.66 227.158C1542.45 226.451 1542.08 225.931 1541.54 225.598C1541.04 225.266 1540.44 225.099 1539.73 225.099C1538.81 225.099 1537.84 225.349 1536.8 225.848C1535.8 226.347 1534.94 226.95 1534.24 227.658C1533.16 228.739 1532.12 230.133 1531.12 231.838C1530.16 233.544 1529.37 235.229 1528.75 236.893C1528.16 238.557 1527.87 239.95 1527.87 241.074C1527.87 242.114 1528.18 242.738 1528.81 242.946ZM1562.7 218.173C1562.95 217.882 1563.32 217.403 1563.82 216.738C1564.32 216.072 1564.82 215.344 1565.32 214.554C1565.86 213.722 1566.32 212.973 1566.69 212.307C1567.07 211.642 1567.27 211.184 1567.32 210.934C1566.48 211.018 1565.86 210.83 1565.44 210.373C1565.03 209.874 1564.82 209.27 1564.82 208.563C1564.82 207.731 1565.09 206.837 1565.63 205.88C1566.5 204.549 1567.63 203.883 1569 203.883C1569.5 203.883 1569.96 204.008 1570.37 204.258C1571.29 204.798 1571.75 205.693 1571.75 206.941C1571.75 207.606 1571.62 208.314 1571.37 209.062C1571.16 209.77 1570.87 210.477 1570.5 211.184C1570.25 211.6 1569.87 212.203 1569.38 212.994C1568.92 213.784 1568.36 214.595 1567.69 215.427C1567.02 216.218 1566.32 216.904 1565.57 217.486C1564.82 218.027 1564.09 218.298 1563.38 218.298C1563.26 218.298 1563.14 218.298 1563.01 218.298C1562.93 218.256 1562.82 218.214 1562.7 218.173ZM1574.35 249.248C1572.93 249.248 1571.6 249.061 1570.35 248.686C1569.1 248.312 1568.09 247.73 1567.29 246.939C1566.5 246.149 1566.11 245.15 1566.11 243.944C1566.11 243.029 1566.38 242.134 1566.92 241.261C1567.5 240.387 1568.31 239.95 1569.35 239.95C1569.81 239.95 1570.23 240.054 1570.6 240.262C1570.98 240.47 1571.23 240.741 1571.35 241.074C1571.31 241.115 1571.21 241.261 1571.04 241.51C1570.87 241.718 1570.77 241.864 1570.73 241.947C1570.35 242.696 1570.17 243.382 1570.17 244.006C1570.17 244.88 1570.48 245.587 1571.1 246.128C1571.77 246.669 1572.62 246.939 1573.66 246.939C1575.03 246.898 1576.22 246.419 1577.22 245.504C1578.26 244.547 1578.78 243.424 1578.78 242.134C1578.78 241.386 1578.61 240.678 1578.28 240.013C1577.74 238.89 1577.01 237.933 1576.09 237.142C1575.22 236.31 1574.37 235.478 1573.53 234.646C1572.74 233.814 1572.16 232.816 1571.79 231.651C1571.62 231.11 1571.54 230.445 1571.54 229.654C1571.54 228.864 1571.64 228.094 1571.85 227.346C1572.06 226.555 1572.37 225.89 1572.79 225.349C1573.37 224.558 1574.24 223.83 1575.41 223.165C1576.86 222.374 1578.57 221.979 1580.52 221.979C1581.81 221.979 1582.96 222.146 1583.96 222.478C1584.7 222.728 1585.35 223.144 1585.89 223.726C1586.47 224.267 1586.76 224.995 1586.76 225.91C1586.76 226.95 1586.43 227.949 1585.77 228.906C1585.14 229.821 1584.23 230.382 1583.02 230.59C1582.27 230.674 1581.61 230.549 1581.02 230.216C1580.44 229.842 1580.23 229.155 1580.4 228.157C1581.52 227.907 1582.33 227.45 1582.83 226.784C1583.08 226.41 1583.21 226.035 1583.21 225.661C1583.21 224.954 1582.92 224.475 1582.33 224.226C1581.79 223.934 1581.27 223.789 1580.77 223.789C1580.15 223.789 1579.55 223.872 1578.96 224.038C1578.42 224.163 1577.92 224.392 1577.47 224.725C1576.55 225.515 1576.09 226.43 1576.09 227.47C1576.09 227.637 1576.11 227.824 1576.16 228.032C1576.24 228.24 1576.3 228.448 1576.34 228.656C1576.55 229.197 1576.86 229.696 1577.28 230.154C1577.69 230.611 1578.11 231.006 1578.53 231.339C1579.57 232.088 1580.63 232.899 1581.71 233.773C1582.83 234.646 1583.66 235.707 1584.21 236.955C1584.62 237.829 1584.83 238.723 1584.83 239.638C1584.83 240.886 1584.52 242.03 1583.89 243.07C1583.27 244.069 1582.56 244.859 1581.77 245.442C1583.14 244.859 1584.48 243.84 1585.77 242.384C1587.1 240.886 1588.24 239.41 1589.2 237.954C1589.82 236.997 1590.38 236.102 1590.88 235.27C1591.42 234.397 1591.96 233.44 1592.5 232.4C1592.67 232.109 1592.82 231.963 1592.94 231.963C1593.19 231.963 1593.32 232.317 1593.32 233.024C1593.32 233.315 1593.25 233.669 1593.13 234.085C1593.05 234.501 1592.9 234.917 1592.69 235.333C1591.94 236.581 1591.24 237.746 1590.57 238.827C1589.9 239.867 1589.09 241.011 1588.14 242.259C1586.22 244.797 1584.18 246.606 1582.02 247.688C1579.86 248.728 1577.3 249.248 1574.35 249.248ZM1655.26 248.499C1653.68 248.499 1652.48 248.083 1651.64 247.251C1650.81 246.419 1650.25 245.358 1649.96 244.069C1649.67 242.779 1649.48 241.448 1649.4 240.075C1649.4 239.285 1649.44 238.349 1649.52 237.267C1649.6 236.186 1649.71 235.146 1649.83 234.147C1650 233.107 1650.12 232.338 1650.21 231.838H1635.92C1633.26 234.626 1630.72 237.35 1628.31 240.013C1625.93 242.634 1623.6 245.296 1621.32 248H1615.08C1616.16 247.002 1617.57 245.67 1619.32 244.006C1621.11 242.301 1623.13 240.366 1625.37 238.203C1627.62 236.04 1629.95 233.752 1632.36 231.339C1634.82 228.885 1637.27 226.43 1639.72 223.976C1642.18 221.48 1644.49 219.088 1646.65 216.8C1648.86 214.47 1650.81 212.37 1652.52 210.498C1653.35 209.582 1654.12 208.667 1654.83 207.752C1655.57 206.795 1656.41 206.005 1657.32 205.381C1658.24 204.757 1659.36 204.445 1660.69 204.445H1665.18C1664.48 205.11 1663.77 206.234 1663.06 207.814C1662.36 209.395 1661.71 211.101 1661.13 212.931C1660.59 214.762 1660.13 216.426 1659.76 217.923C1659.21 220.17 1658.65 222.603 1658.07 225.224C1657.53 227.845 1657.09 230.445 1656.76 233.024C1656.43 235.603 1656.32 237.995 1656.45 240.2C1656.49 240.99 1656.64 241.822 1656.88 242.696C1657.18 243.528 1657.57 244.256 1658.07 244.88C1658.61 245.462 1659.28 245.754 1660.07 245.754C1660.77 245.754 1661.54 245.483 1662.38 244.942L1662.75 245.504C1662.21 246.336 1661.17 247.043 1659.63 247.626C1658.13 248.208 1656.68 248.499 1655.26 248.499ZM1630.3 216.862C1629.64 216.155 1629.14 215.427 1628.8 214.678C1628.51 213.93 1628.37 213.222 1628.37 212.557C1628.37 211.725 1628.53 210.934 1628.87 210.186C1629.24 209.395 1629.68 208.73 1630.18 208.189C1631.18 207.066 1632.42 206.234 1633.92 205.693C1635.42 205.152 1637 204.819 1638.66 204.694C1640.37 204.528 1641.99 204.445 1643.53 204.445H1657.51C1656.64 205.318 1655.3 206.005 1653.52 206.504C1651.77 206.962 1649.85 207.315 1647.77 207.565C1645.69 207.773 1643.68 207.981 1641.72 208.189C1639.81 208.355 1638.23 208.584 1636.98 208.875C1634.77 209.374 1633.09 210.331 1631.92 211.746C1630.8 213.16 1630.26 214.866 1630.3 216.862ZM1638.66 228.718H1650.64C1651.14 225.973 1651.73 223.227 1652.39 220.482C1653.1 217.736 1653.72 215.323 1654.26 213.243C1651.73 215.656 1649.13 218.173 1646.46 220.794C1643.84 223.373 1641.24 226.014 1638.66 228.718ZM1677.29 248.437C1675.96 248.437 1675 247.875 1674.42 246.752C1673.96 245.754 1673.73 244.568 1673.73 243.195C1673.73 241.656 1673.96 239.95 1674.42 238.078C1674.88 236.206 1675.5 234.293 1676.29 232.338C1676.58 231.63 1676.96 230.736 1677.41 229.654C1677.91 228.573 1678.5 227.512 1679.16 226.472C1678.58 226.971 1677.89 227.387 1677.1 227.72C1676.31 228.011 1675.54 228.157 1674.79 228.157C1674.21 228.157 1673.73 228.074 1673.36 227.907C1673.03 228.573 1672.48 229.654 1671.74 231.152C1670.99 232.65 1669.99 234.418 1668.74 236.456C1668.62 236.664 1668.49 236.664 1668.37 236.456C1668.28 236.206 1668.24 235.874 1668.24 235.458C1668.24 235.125 1668.28 234.771 1668.37 234.397C1668.45 234.022 1668.57 233.669 1668.74 233.336C1669.16 232.546 1669.57 231.734 1669.99 230.902C1670.4 230.029 1670.78 229.259 1671.11 228.594C1671.44 227.928 1671.63 227.512 1671.67 227.346C1670.92 226.971 1670.36 226.451 1669.99 225.786C1669.61 225.078 1669.43 224.392 1669.43 223.726C1669.43 223.061 1669.57 222.458 1669.86 221.917C1670.2 221.376 1670.68 220.96 1671.3 220.669C1671.67 220.544 1672.03 220.482 1672.36 220.482C1673.28 220.482 1674.02 220.773 1674.61 221.355C1674.56 221.522 1674.52 221.709 1674.48 221.917C1674.48 222.083 1674.48 222.27 1674.48 222.478C1674.48 223.768 1675 224.725 1676.04 225.349C1677.08 225.973 1678.2 226.202 1679.41 226.035C1679.99 225.203 1680.66 224.475 1681.41 223.851C1682.16 223.227 1682.97 222.915 1683.84 222.915C1684.3 222.915 1684.94 222.936 1685.78 222.978C1686.65 223.019 1687.27 223.019 1687.65 222.978C1687.4 223.144 1687.11 223.477 1686.77 223.976C1686.44 224.475 1686.13 224.995 1685.84 225.536C1685.55 226.077 1685.32 226.493 1685.15 226.784C1684.03 228.947 1682.99 231.11 1682.03 233.274C1681.08 235.395 1680.35 237.434 1679.85 239.389C1679.76 239.763 1679.68 240.117 1679.6 240.45C1679.56 240.741 1679.54 241.053 1679.54 241.386C1679.54 242.634 1679.95 243.258 1680.78 243.258C1681.37 243.258 1682.2 242.842 1683.28 242.01C1684.24 241.219 1685.09 240.346 1685.84 239.389C1686.67 238.307 1687.46 237.142 1688.21 235.894C1688.96 234.646 1689.6 233.502 1690.14 232.462C1690.35 232.13 1690.5 231.963 1690.58 231.963C1690.83 231.963 1690.96 232.338 1690.96 233.086C1690.96 233.378 1690.91 233.731 1690.83 234.147C1690.75 234.563 1690.6 234.958 1690.39 235.333C1689.77 236.373 1689.06 237.517 1688.27 238.765C1687.48 239.971 1686.67 241.157 1685.84 242.322C1685.3 243.07 1684.53 243.923 1683.53 244.88C1682.57 245.837 1681.53 246.669 1680.41 247.376C1679.33 248.083 1678.29 248.437 1677.29 248.437ZM1696.69 248.374C1695.49 248.374 1694.57 247.896 1693.95 246.939C1693.66 246.482 1693.45 245.941 1693.32 245.317C1693.2 244.693 1693.14 244.048 1693.14 243.382C1693.14 242.717 1693.18 242.051 1693.26 241.386C1693.34 240.678 1693.45 239.992 1693.57 239.326C1693.78 238.245 1694.01 237.267 1694.26 236.394C1694.55 235.478 1694.84 234.605 1695.13 233.773V233.71C1694.8 234.334 1694.38 235.021 1693.89 235.77C1693.39 236.477 1693.03 236.997 1692.82 237.33C1692.53 237.787 1692.3 238.016 1692.14 238.016C1691.97 238.016 1691.89 237.829 1691.89 237.454C1691.89 236.622 1692.14 235.707 1692.64 234.709C1692.97 234.043 1693.43 233.19 1694.01 232.15C1694.59 231.069 1695.2 229.904 1695.82 228.656C1696.44 227.408 1696.98 226.202 1697.44 225.037H1693.26C1693.05 225.037 1693.01 224.87 1693.14 224.538C1693.26 224.205 1693.45 223.893 1693.7 223.602C1693.95 223.269 1694.14 223.102 1694.26 223.102H1699C1699.46 222.021 1699.98 220.856 1700.56 219.608C1701.19 218.36 1701.87 217.195 1702.62 216.114C1703.41 214.99 1704.26 214.075 1705.18 213.368C1706.1 212.661 1707.07 212.307 1708.11 212.307C1708.57 212.307 1709.13 212.307 1709.8 212.307C1710.5 212.307 1710.94 212.286 1711.11 212.245C1710.23 212.827 1709.22 213.992 1708.05 215.739C1706.89 217.445 1705.62 219.899 1704.24 223.102H1710.55C1710.67 223.102 1710.63 223.269 1710.42 223.602C1710.21 223.893 1709.94 224.205 1709.61 224.538C1709.32 224.87 1709.03 225.037 1708.74 225.037H1703.37C1702.83 226.41 1702.23 227.907 1701.56 229.53C1700.94 231.152 1700.35 232.754 1699.81 234.334C1699.31 235.874 1698.94 237.288 1698.69 238.578C1698.52 239.368 1698.44 240.096 1698.44 240.762C1698.44 242.342 1698.94 243.133 1699.94 243.133C1700.6 243.133 1701.39 242.8 1702.31 242.134C1703.22 241.469 1704.14 240.554 1705.06 239.389C1705.89 238.307 1706.68 237.142 1707.43 235.894C1708.22 234.646 1708.88 233.502 1709.42 232.462C1709.59 232.171 1709.74 232.026 1709.86 232.026C1710.11 232.026 1710.23 232.358 1710.23 233.024C1710.23 233.357 1710.17 233.752 1710.05 234.21C1709.96 234.626 1709.8 235.042 1709.55 235.458C1708.97 236.456 1708.28 237.558 1707.49 238.765C1706.7 239.93 1705.89 241.094 1705.06 242.259C1704.47 243.008 1703.7 243.861 1702.75 244.818C1701.83 245.774 1700.83 246.606 1699.75 247.314C1698.71 248.021 1697.69 248.374 1696.69 248.374Z" fill="white"/>
<path d="M623.52 560.92L623.72 559.8H635.56C637.453 559.8 639 560.147 640.2 560.84C641.4 561.507 642.253 562.427 642.76 563.6C643.267 564.773 643.4 566.08 643.16 567.52L643 568.48C642.653 570.667 641.707 572.4 640.16 573.68C638.64 574.933 636.333 575.56 633.24 575.56H628.84L627.4 583.64C627.24 584.547 627.187 585.093 627.24 585.28C627.293 585.44 627.52 585.547 627.92 585.6L630.88 585.88L630.68 587H618.92L619.12 585.88L621.36 585.6C621.813 585.547 622.093 585.44 622.2 585.28C622.307 585.093 622.44 584.547 622.6 583.64L626.2 563.16C626.36 562.253 626.413 561.72 626.36 561.56C626.307 561.373 626.08 561.253 625.68 561.2L623.52 560.92ZM635.52 561.2H631.36L629.08 574.16H633.24C634.413 574.16 635.387 573.707 636.16 572.8C636.96 571.893 637.493 570.667 637.76 569.12L638.2 566.6C638.493 564.947 638.413 563.64 637.96 562.68C637.507 561.693 636.693 561.2 635.52 561.2ZM658.986 569.12C658.4 569.12 657.706 569.467 656.906 570.16C656.133 570.827 655.28 572.107 654.346 574L652.066 587H647.466L650.426 570.04C650.586 569.16 650.64 568.64 650.586 568.48C650.533 568.293 650.306 568.173 649.906 568.12L647.746 567.84L647.946 566.72H655.386L654.666 570.72C656.693 567.787 658.853 566.32 661.146 566.32C662.026 566.32 662.813 566.587 663.506 567.12C664.2 567.627 664.68 568.587 664.946 570L661.026 571.92C660.84 570.827 660.56 570.093 660.186 569.72C659.813 569.32 659.413 569.12 658.986 569.12ZM674.627 563.2C673.854 563.2 673.241 562.987 672.787 562.56C672.361 562.133 672.147 561.547 672.147 560.8C672.147 559.973 672.414 559.267 672.947 558.68C673.481 558.093 674.201 557.8 675.107 557.8C675.881 557.8 676.481 558.013 676.907 558.44C677.361 558.867 677.588 559.453 677.588 560.2C677.588 561.027 677.321 561.733 676.787 562.32C676.281 562.907 675.561 563.2 674.627 563.2ZM668.227 567.84L668.427 566.72H676.108L673.627 581C673.307 582.867 673.147 584.107 673.147 584.72C673.174 585.307 673.387 585.6 673.787 585.6C674.161 585.6 674.561 585.387 674.987 584.96C675.414 584.533 675.801 583.813 676.147 582.8L677.707 583.68C677.121 584.907 676.414 585.8 675.587 586.36C674.761 586.92 673.814 587.2 672.747 587.2C671.281 587.2 670.201 586.693 669.507 585.68C668.814 584.64 668.627 583.187 668.947 581.32L670.907 570.08C671.067 569.173 671.121 568.64 671.067 568.48C671.014 568.293 670.787 568.173 670.387 568.12L668.227 567.84ZM693.092 567.72C691.972 567.72 690.932 568.32 689.972 569.52C689.039 570.693 688.346 572.587 687.892 575.2L687.492 577.6C686.586 583.2 687.639 586 690.652 586C691.506 586 692.426 585.693 693.412 585.08C694.399 584.467 695.159 583.387 695.692 581.84L697.812 583.08C696.879 584.707 695.746 585.84 694.412 586.48C693.106 587.093 691.732 587.4 690.292 587.4C688.372 587.4 686.772 586.947 685.492 586.04C684.239 585.133 683.359 583.88 682.852 582.28C682.372 580.653 682.332 578.76 682.732 576.6L682.892 575.72C683.239 573.853 683.892 572.227 684.852 570.84C685.839 569.427 687.052 568.32 688.492 567.52C689.959 566.72 691.572 566.32 693.332 566.32C694.932 566.32 696.266 566.693 697.332 567.44C698.426 568.16 699.172 569.107 699.572 570.28C699.972 571.453 699.932 572.733 699.452 574.12L694.932 574.76C695.626 572.6 695.786 570.893 695.412 569.64C695.039 568.36 694.266 567.72 693.092 567.72ZM720.262 583.08C719.329 584.707 718.156 585.84 716.742 586.48C715.329 587.093 713.889 587.4 712.422 587.4C710.476 587.4 708.849 586.947 707.542 586.04C706.262 585.133 705.369 583.88 704.862 582.28C704.382 580.653 704.329 578.76 704.702 576.6L704.862 575.72C705.209 573.853 705.862 572.227 706.822 570.84C707.809 569.427 709.049 568.32 710.542 567.52C712.036 566.72 713.702 566.32 715.542 566.32C716.929 566.32 718.089 566.547 719.022 567C719.956 567.453 720.662 568.053 721.142 568.8C721.622 569.52 721.862 570.293 721.862 571.12C721.862 572.507 721.396 573.693 720.462 574.68C719.529 575.667 718.236 576.453 716.582 577.04C714.956 577.6 713.062 577.96 710.902 578.12L709.382 578.24C708.609 583.413 709.742 586 712.782 586C713.369 586 714.009 585.88 714.702 585.64C715.396 585.373 716.049 584.933 716.662 584.32C717.302 583.707 717.796 582.893 718.142 581.88L720.262 583.08ZM709.862 575.2L709.582 576.84L710.862 576.76C712.782 576.627 714.249 576.267 715.262 575.68C716.302 575.067 717.009 574.333 717.382 573.48C717.782 572.627 717.982 571.787 717.982 570.96C717.982 569.947 717.742 569.16 717.262 568.6C716.809 568.013 716.156 567.72 715.302 567.72C714.102 567.72 713.009 568.32 712.022 569.52C711.036 570.693 710.316 572.587 709.862 575.2ZM754.171 587.2C753.077 587.2 752.184 586.907 751.491 586.32C750.824 585.707 750.424 584.84 750.291 583.72C749.437 585.133 748.504 586.107 747.491 586.64C746.477 587.147 745.437 587.4 744.371 587.4C742.744 587.4 741.424 586.907 740.411 585.92C739.424 584.933 738.757 583.6 738.411 581.92C738.091 580.24 738.117 578.387 738.491 576.36L738.651 575.48C739.024 573.48 739.677 571.8 740.611 570.44C741.544 569.08 742.651 568.053 743.931 567.36C745.237 566.667 746.611 566.32 748.051 566.32C750.104 566.32 751.664 567.013 752.731 568.4C753.344 568.24 753.971 568.027 754.611 567.76C755.277 567.493 755.904 567.147 756.491 566.72H757.571L755.051 581C754.704 582.867 754.544 584.107 754.571 584.72C754.597 585.307 754.811 585.6 755.211 585.6C755.584 585.6 755.984 585.387 756.411 584.96C756.837 584.533 757.224 583.813 757.571 582.8L759.131 583.68C758.544 584.907 757.837 585.8 757.011 586.36C756.184 586.92 755.237 587.2 754.171 587.2ZM743.291 577.08C742.784 580.013 742.744 582.2 743.171 583.64C743.624 585.053 744.357 585.76 745.371 585.76C745.744 585.76 746.197 585.64 746.731 585.4C747.291 585.133 747.891 584.627 748.531 583.88C749.197 583.107 749.864 581.973 750.531 580.48L752.291 570.4C751.864 569.467 751.304 568.827 750.611 568.48C749.944 568.107 749.264 567.92 748.571 567.92C747.184 567.92 746.104 568.547 745.331 569.8C744.584 571.053 744.024 572.787 743.651 575L743.291 577.08ZM776.127 582.84C775.461 584.547 774.634 585.733 773.647 586.4C772.687 587.067 771.621 587.4 770.447 587.4C768.927 587.4 767.727 587.08 766.847 586.44C765.967 585.8 765.367 584.973 765.047 583.96C764.754 582.92 764.714 581.8 764.927 580.6L766.727 570.08C766.887 569.173 766.941 568.64 766.887 568.48C766.834 568.293 766.607 568.173 766.207 568.12L764.047 567.84L764.247 566.72H767.327L768.127 562.08L772.887 561.16L771.927 566.72H778.327L778.087 568.12H771.647L769.327 581.44C769.034 583.147 769.021 584.333 769.287 585C769.554 585.667 770.021 586 770.687 586C771.461 586 772.101 585.707 772.607 585.12C773.114 584.533 773.554 583.52 773.927 582.08L776.127 582.84ZM809.318 577.36L807.638 587H790.878L791.358 584.2C791.705 582.307 792.331 580.747 793.238 579.52C794.171 578.267 795.265 577.2 796.518 576.32C797.771 575.44 799.038 574.6 800.318 573.8C801.438 573.107 802.478 572.387 803.438 571.64C804.425 570.867 805.211 569.947 805.798 568.88C806.411 567.787 806.718 566.44 806.718 564.84C806.718 563.427 806.465 562.4 805.958 561.76C805.478 561.12 804.758 560.8 803.798 560.8C802.331 560.8 801.198 561.453 800.398 562.76C799.598 564.067 799.105 565.92 798.918 568.32L794.238 567.68C794.238 566.213 794.598 564.853 795.318 563.6C796.038 562.347 797.105 561.333 798.518 560.56C799.931 559.787 801.691 559.4 803.798 559.4C805.665 559.4 807.185 559.693 808.358 560.28C809.531 560.867 810.385 561.653 810.918 562.64C811.478 563.627 811.758 564.733 811.758 565.96C811.758 567.48 811.411 568.76 810.718 569.8C810.051 570.813 809.158 571.667 808.038 572.36C806.945 573.053 805.731 573.68 804.398 574.24C803.091 574.773 801.785 575.347 800.478 575.96C798.851 576.707 797.398 577.613 796.118 578.68C794.838 579.72 793.918 581.107 793.358 582.84H803.798C804.438 582.84 804.891 582.827 805.158 582.8C805.425 582.747 805.625 582.653 805.758 582.52C805.891 582.36 806.025 582.12 806.158 581.8L808.198 577.36H809.318ZM837.126 572.72L836.766 574.84C835.326 583.213 831.526 587.4 825.366 587.4C823.18 587.4 821.42 586.853 820.086 585.76C818.78 584.667 817.9 583.12 817.446 581.12C816.993 579.12 817.006 576.76 817.486 574.04L817.846 571.92C819.286 563.573 823.073 559.4 829.206 559.4C831.393 559.4 833.153 559.947 834.486 561.04C835.82 562.107 836.713 563.64 837.166 565.64C837.62 567.64 837.606 570 837.126 572.72ZM832.366 570.4C832.926 566.933 832.913 564.467 832.326 563C831.766 561.533 830.7 560.8 829.126 560.8C827.58 560.8 826.353 561.52 825.446 562.96C824.54 564.4 823.806 566.827 823.246 570.24L822.246 576.36C821.686 579.773 821.686 582.24 822.246 583.76C822.806 585.253 823.86 586 825.406 586C826.98 586 828.22 585.267 829.126 583.8C830.06 582.333 830.806 579.907 831.366 576.52L832.366 570.4ZM847.113 584.76C847.113 586.227 846.5 587.773 845.273 589.4C844.047 591.027 842.513 592.707 840.673 594.44L839.873 593.56C841.207 592.227 842.18 591.067 842.793 590.08C843.433 589.12 843.847 588.227 844.033 587.4C842.513 587.32 841.753 586.533 841.753 585.04C841.753 584.187 842.007 583.467 842.513 582.88C843.02 582.293 843.727 582 844.633 582C845.353 582 845.94 582.227 846.393 582.68C846.873 583.133 847.113 583.827 847.113 584.76ZM874.583 572.72L874.223 574.84C872.783 583.213 868.983 587.4 862.823 587.4C860.636 587.4 858.876 586.853 857.543 585.76C856.236 584.667 855.356 583.12 854.903 581.12C854.449 579.12 854.463 576.76 854.943 574.04L855.303 571.92C856.743 563.573 860.529 559.4 866.663 559.4C868.849 559.4 870.609 559.947 871.943 561.04C873.276 562.107 874.169 563.64 874.623 565.64C875.076 567.64 875.063 570 874.583 572.72ZM869.823 570.4C870.383 566.933 870.369 564.467 869.783 563C869.223 561.533 868.156 560.8 866.583 560.8C865.036 560.8 863.809 561.52 862.903 562.96C861.996 564.4 861.263 566.827 860.703 570.24L859.703 576.36C859.143 579.773 859.143 582.24 859.703 583.76C860.263 585.253 861.316 586 862.863 586C864.436 586 865.676 585.267 866.583 583.8C867.516 582.333 868.263 579.907 868.823 576.52L869.823 570.4ZM901.631 572.72L901.271 574.84C899.831 583.213 896.031 587.4 889.871 587.4C887.684 587.4 885.924 586.853 884.591 585.76C883.284 584.667 882.404 583.12 881.951 581.12C881.498 579.12 881.511 576.76 881.991 574.04L882.351 571.92C883.791 563.573 887.578 559.4 893.711 559.4C895.898 559.4 897.658 559.947 898.991 561.04C900.324 562.107 901.218 563.64 901.671 565.64C902.124 567.64 902.111 570 901.631 572.72ZM896.871 570.4C897.431 566.933 897.418 564.467 896.831 563C896.271 561.533 895.204 560.8 893.631 560.8C892.084 560.8 890.858 561.52 889.951 562.96C889.044 564.4 888.311 566.827 887.751 570.24L886.751 576.36C886.191 579.773 886.191 582.24 886.751 583.76C887.311 585.253 888.364 586 889.911 586C891.484 586 892.724 585.267 893.631 583.8C894.564 582.333 895.311 579.907 895.871 576.52L896.871 570.4ZM928.679 572.72L928.319 574.84C926.879 583.213 923.079 587.4 916.919 587.4C914.733 587.4 912.973 586.853 911.639 585.76C910.333 584.667 909.453 583.12 908.999 581.12C908.546 579.12 908.559 576.76 909.039 574.04L909.399 571.92C910.839 563.573 914.626 559.4 920.759 559.4C922.946 559.4 924.706 559.947 926.039 561.04C927.373 562.107 928.266 563.64 928.719 565.64C929.173 567.64 929.159 570 928.679 572.72ZM923.919 570.4C924.479 566.933 924.466 564.467 923.879 563C923.319 561.533 922.253 560.8 920.679 560.8C919.133 560.8 917.906 561.52 916.999 562.96C916.093 564.4 915.359 566.827 914.799 570.24L913.799 576.36C913.239 579.773 913.239 582.24 913.799 583.76C914.359 585.253 915.413 586 916.959 586C918.533 586 919.773 585.267 920.679 583.8C921.613 582.333 922.359 579.907 922.919 576.52L923.919 570.4Z" fill="white"/>
<rect x="1307.5" y="435.5" width="422" height="75" rx="5.5" fill="black"/>
<rect x="1307.5" y="435.5" width="422" height="75" rx="5.5" stroke="white" stroke-width="3"/>
<path d="M1451.94 486.5V464.094H1458.31C1460.25 464.094 1461.79 464.568 1462.92 465.516C1464.06 466.464 1464.62 467.698 1464.62 469.219C1464.62 470.49 1464.28 471.594 1463.59 472.531C1462.91 473.469 1461.96 474.135 1460.75 474.531V474.594C1462.26 474.771 1463.47 475.344 1464.38 476.312C1465.28 477.271 1465.73 478.521 1465.73 480.062C1465.73 481.979 1465.05 483.531 1463.67 484.719C1462.3 485.906 1460.56 486.5 1458.47 486.5H1451.94ZM1454.56 466.469V473.703H1457.25C1458.69 473.703 1459.82 473.359 1460.64 472.672C1461.46 471.974 1461.88 470.995 1461.88 469.734C1461.88 467.557 1460.44 466.469 1457.58 466.469H1454.56ZM1454.56 476.062V484.125H1458.12C1459.67 484.125 1460.86 483.76 1461.7 483.031C1462.56 482.302 1462.98 481.302 1462.98 480.031C1462.98 477.385 1461.18 476.062 1457.58 476.062H1454.56ZM1484.8 486.5H1482.23V483.969H1482.17C1481.11 485.906 1479.46 486.875 1477.23 486.875C1473.42 486.875 1471.51 484.604 1471.51 480.062V470.5H1474.06V479.656C1474.06 483.031 1475.35 484.719 1477.94 484.719C1479.19 484.719 1480.21 484.26 1481.01 483.344C1481.83 482.417 1482.23 481.208 1482.23 479.719V470.5H1484.8V486.5ZM1504.64 470.5L1497.28 489.062C1495.97 492.375 1494.12 494.031 1491.75 494.031C1491.08 494.031 1490.52 493.964 1490.07 493.828V491.531C1490.63 491.719 1491.13 491.812 1491.59 491.812C1492.88 491.812 1493.85 491.042 1494.5 489.5L1495.78 486.469L1489.53 470.5H1492.37L1496.7 482.812C1496.75 482.969 1496.86 483.375 1497.03 484.031H1497.12C1497.17 483.781 1497.28 483.385 1497.43 482.844L1501.98 470.5H1504.64ZM1538.43 486.5H1535.21L1523.68 468.641C1523.39 468.193 1523.15 467.724 1522.96 467.234H1522.87C1522.95 467.714 1522.99 468.74 1522.99 470.312V486.5H1520.37V464.094H1523.77L1534.99 481.672C1535.46 482.401 1535.76 482.901 1535.9 483.172H1535.96C1535.86 482.526 1535.81 481.427 1535.81 479.875V464.094H1538.43V486.5ZM1552.57 486.875C1550.2 486.875 1548.31 486.13 1546.9 484.641C1545.49 483.141 1544.79 481.156 1544.79 478.688C1544.79 476 1545.52 473.901 1546.99 472.391C1548.46 470.88 1550.44 470.125 1552.94 470.125C1555.33 470.125 1557.19 470.859 1558.52 472.328C1559.87 473.797 1560.54 475.833 1560.54 478.438C1560.54 480.99 1559.81 483.036 1558.37 484.578C1556.93 486.109 1555 486.875 1552.57 486.875ZM1552.76 472.281C1551.11 472.281 1549.81 472.844 1548.85 473.969C1547.89 475.083 1547.41 476.625 1547.41 478.594C1547.41 480.49 1547.9 481.984 1548.87 483.078C1549.83 484.172 1551.13 484.719 1552.76 484.719C1554.41 484.719 1555.68 484.182 1556.57 483.109C1557.46 482.036 1557.91 480.51 1557.91 478.531C1557.91 476.531 1557.46 474.99 1556.57 473.906C1555.68 472.823 1554.41 472.281 1552.76 472.281ZM1586.71 470.5L1581.91 486.5H1579.25L1575.96 475.047C1575.83 474.609 1575.75 474.115 1575.71 473.562H1575.64C1575.61 473.938 1575.5 474.422 1575.32 475.016L1571.74 486.5H1569.18L1564.33 470.5H1567.02L1570.33 482.531C1570.44 482.896 1570.51 483.375 1570.55 483.969H1570.68C1570.71 483.51 1570.8 483.021 1570.96 482.5L1574.64 470.5H1576.99L1580.3 482.562C1580.41 482.948 1580.48 483.427 1580.54 484H1580.66C1580.68 483.594 1580.77 483.115 1580.93 482.562L1584.18 470.5H1586.71Z" fill="white"/>
</svg>
