<svg width="235" height="303" viewBox="0 0 235 303" fill="none" xmlns="http://www.w3.org/2000/svg">
<path d="M118.489 120.867V158.15L77.2411 302.616H3.15107L57.1059 174.766L66.2938 146.812V135.864L64.3389 134.496L35.0157 99.6989L16.4443 67.6388L12.339 51.6087L10.5796 38.7065L6.47438 24.2404L3.54205 14.6614L0.21875 4.10508L1.4343 2.67501C2.77144 1.10191 4.73191 0.195312 6.79651 0.195312H7.56911C9.3762 0.195312 11.114 0.890449 12.4226 2.13671L13.2206 2.89666C14.0537 3.69016 14.6796 4.67584 15.0435 5.76736L16.0533 8.7968H17.6481C18.4045 8.7968 19.156 8.91874 19.8736 9.15794L20.0182 9.20615C21.5029 9.70104 22.7802 10.6767 23.6483 11.9788L26.2187 15.8344L29.542 17.3983L31.6924 19.9396L33.8427 22.481L35.4066 28.0524L35.9224 28.3709C37.7012 29.4696 38.8994 31.3023 39.1923 33.3724L41.6623 50.8268L45.572 60.0147L46.745 69.0072L55.4722 77.4051C56.5539 78.446 57.7996 79.3018 59.1592 79.9383L66.2938 83.2778L68.6397 80.932L74.3088 82.4959L77.2411 83.2778L84.5636 95.3981L90.3389 99.6989L99.539 101.285C100.956 101.529 102.325 101.995 103.596 102.666L109.199 105.62C111.315 106.736 113.102 108.387 114.381 110.408L116.369 113.551C117.754 115.74 118.489 118.277 118.489 120.867Z" fill="black" fill-opacity="0.27"/>
<path d="M26.2187 26.9772L29.542 29.1276V36.2905C29.542 37.3009 28.7229 38.12 27.7125 38.12M26.2187 26.9772L27.7125 38.12M26.2187 26.9772L32.0833 25.9998M26.2187 26.9772V15.8344M33.4518 80.932L81.1509 130.977V146.812M33.4518 80.932L27.7125 38.12M33.4518 80.932L35.0157 84.4508L44.0081 95.3981L37.166 92.8568L21.527 67.6388L16.4443 38.12L14.4894 25.9998C14.3591 25.1527 13.942 23.2629 13.3165 22.481M81.1509 146.812L118.489 158.15M81.1509 146.812H66.2938M118.489 158.15V120.867C118.489 118.277 117.754 115.74 116.369 113.551L114.381 110.408C113.102 108.387 111.315 106.736 109.199 105.62L103.596 102.666C102.325 101.995 100.956 101.529 99.539 101.285L90.3389 99.6989L84.5636 95.3981M118.489 158.15L77.2411 302.616H3.15107L57.1059 174.766L66.2938 146.812M66.2938 83.2778L74.3088 88.556L81.1509 92.8568L84.5636 95.3981M66.2938 83.2778L59.1592 79.9383C57.7996 79.3018 56.5539 78.446 55.4722 77.4051L46.745 69.0072M66.2938 83.2778L68.6397 80.932L74.3088 82.4959L77.2411 83.2778L84.5636 95.3981M46.745 69.0072L44.0081 72.917M46.745 69.0072L45.572 60.0147L41.6623 50.8268M41.6623 50.8268L37.166 51.6087M41.6623 50.8268L39.1923 33.3724C38.8994 31.3023 37.7012 29.4696 35.9224 28.3709L35.4066 28.0524M32.0833 25.9998L35.4066 28.0524M32.0833 25.9998L31.6924 19.9396M35.4066 28.0524L33.8427 22.481L31.6924 19.9396M26.2187 15.8344L29.542 17.3983L31.6924 19.9396M26.2187 15.8344L23.6483 11.9788C22.7802 10.6767 21.5029 9.70104 20.0182 9.20615L19.8736 9.15794C19.156 8.91874 18.4045 8.7968 17.6481 8.7968H16.0533M12.339 13.293L12.7351 11.4712C13.0744 9.91019 14.4559 8.7968 16.0533 8.7968M12.339 13.293H16.4443C16.4443 16.3557 16.0533 22.09 15.6623 22.481C15.22 22.9233 13.8378 22.481 13.3165 22.481M12.339 13.293L13.3165 22.481M16.0533 8.7968L15.0435 5.76736C14.6796 4.67584 14.0537 3.69016 13.2206 2.89666L12.4226 2.13671C11.114 0.890449 9.3762 0.195312 7.56911 0.195312H6.79651C4.73191 0.195312 2.77144 1.10191 1.4343 2.67501L0.21875 4.10508M0.21875 4.10508L4.324 5.86447L6.00131 12.7262C6.2421 13.7112 5.49619 14.6614 4.48213 14.6614H3.54205M0.21875 4.10508L3.54205 14.6614M3.54205 14.6614L6.47438 24.2404L10.5796 38.7065L12.339 51.6087L16.4443 67.6388L35.0157 99.6989L64.3389 134.496L66.2938 135.864V146.812M117.707 146.812C117.121 146.812 115.948 146.655 115.948 146.03C115.948 145.404 115.948 128.827 115.948 120.616L112.429 115.533L105.782 110.451L93.6622 104.782" stroke="black" stroke-width="0.390977"/>
<path d="M115.948 121.062V158.345L157.196 302.811H231.286L177.332 174.962L168.144 147.007V136.06L170.099 134.691L199.422 99.8942L217.993 67.8341L222.098 51.8041L223.858 38.9018L227.963 24.4357L230.895 14.8568L234.219 4.30039L233.003 2.87033C231.666 1.29722 229.706 0.390625 227.641 0.390625H226.868C225.061 0.390625 223.323 1.08576 222.015 2.33203L221.217 3.09198C220.384 3.88547 219.758 4.87115 219.394 5.96268L218.384 8.99211H216.789C216.033 8.99211 215.282 9.11406 214.564 9.35326L214.419 9.40146C212.935 9.89635 211.657 10.872 210.789 12.1741L208.219 16.0297L204.896 17.5936L202.745 20.1349L200.595 22.6763L199.031 28.2477L198.515 28.5662C196.736 29.6649 195.538 31.4976 195.245 33.5677L192.775 51.0221L188.865 60.21L187.693 69.2025L178.965 77.6004C177.884 78.6413 176.638 79.4971 175.278 80.1336L168.144 83.4732L165.798 81.1273L160.129 82.6912L157.196 83.4732L149.874 95.5934L144.099 99.8942L134.898 101.48C133.482 101.725 132.113 102.191 130.841 102.861L125.238 105.815C123.122 106.931 121.335 108.582 120.056 110.604L118.068 113.746C116.683 115.935 115.948 118.472 115.948 121.062Z" fill="black" fill-opacity="0.27"/>
<path d="M208.219 27.1725L204.896 29.3229V36.4858C204.896 37.4963 205.715 38.3154 206.725 38.3154M208.219 27.1725L206.725 38.3154M208.219 27.1725L202.354 26.1951M208.219 27.1725V16.0297M200.986 81.1273L153.287 131.172V147.007M200.986 81.1273L206.725 38.3154M200.986 81.1273L199.422 84.6461L190.429 95.5934L197.271 93.0521L212.911 67.8341L217.993 38.3154L219.948 26.1951C220.078 25.348 220.495 23.4582 221.121 22.6763M153.287 147.007L115.948 158.345M153.287 147.007H168.144M115.948 158.345V121.062C115.948 118.472 116.683 115.935 118.068 113.746L120.056 110.604C121.335 108.582 123.122 106.931 125.238 105.815L130.841 102.861C132.113 102.191 133.482 101.725 134.898 101.48L144.099 99.8942L149.874 95.5934M115.948 158.345L157.196 302.811H231.286L177.332 174.962L168.144 147.007M168.144 83.4732L160.129 88.7513L153.287 93.0521L149.874 95.5934M168.144 83.4732L175.278 80.1336C176.638 79.4971 177.884 78.6413 178.965 77.6004L187.693 69.2025M168.144 83.4732L165.798 81.1273L160.129 82.6912L157.196 83.4732L149.874 95.5934M187.693 69.2025L190.429 73.1123M187.693 69.2025L188.865 60.21L192.775 51.0221M192.775 51.0221L197.271 51.804M192.775 51.0221L195.245 33.5677C195.538 31.4976 196.736 29.6649 198.515 28.5662L199.031 28.2477M202.354 26.1951L199.031 28.2477M202.354 26.1951L202.745 20.1349M199.031 28.2477L200.595 22.6763L202.745 20.1349M208.219 16.0297L204.896 17.5936L202.745 20.1349M208.219 16.0297L210.789 12.1741C211.657 10.872 212.935 9.89635 214.419 9.40146L214.564 9.35326C215.282 9.11406 216.033 8.99211 216.789 8.99211H218.384M222.098 13.4883L221.702 11.6665C221.363 10.1055 219.982 8.99211 218.384 8.99211M222.098 13.4883H217.993C217.993 16.551 218.384 22.2853 218.775 22.6763C219.218 23.1186 220.6 22.6763 221.121 22.6763M222.098 13.4883L221.121 22.6763M218.384 8.99211L219.394 5.96268C219.758 4.87115 220.384 3.88547 221.217 3.09198L222.015 2.33203C223.323 1.08576 225.061 0.390625 226.868 0.390625H227.641C229.706 0.390625 231.666 1.29722 233.003 2.87033L234.219 4.30039M234.219 4.30039L230.113 6.05979L228.436 12.9215C228.195 13.9065 228.941 14.8568 229.955 14.8568H230.895M234.219 4.30039L230.895 14.8568M230.895 14.8568L227.963 24.4357L223.858 38.9018L222.098 51.804L217.993 67.8341L199.422 99.8942L170.099 134.691L168.144 136.06V147.007M116.73 147.007C117.317 147.007 118.49 146.85 118.49 146.225C118.49 145.599 118.49 129.022 118.49 120.811L122.008 115.729L128.655 110.646L140.775 104.977" stroke="black" stroke-width="0.390977"/>
<path d="M12.9258 117.684V120.42" stroke="#EAEAEA" stroke-width="0.390977"/>
<path d="M130.719 52.4453C125.469 52.4453 120.844 55.0703 118.219 59.1953C115.594 55.0703 110.969 52.4453 105.719 52.4453C97.4688 52.4453 90.7188 59.1953 90.7188 67.4453C90.7188 82.3203 118.219 97.4453 118.219 97.4453C118.219 97.4453 145.719 82.4453 145.719 67.4453C145.719 59.1953 138.969 52.4453 130.719 52.4453Z" fill="#F44336"/>
</svg>
