<svg width="552" height="730" viewBox="0 0 552 730" fill="none" xmlns="http://www.w3.org/2000/svg">
<g clip-path="url(#clip0_9464_3113)">
<rect x="13.418" y="13.418" width="524.41" height="703" fill="#250224"/>
<g filter="url(#filter0_n_9464_3113)">
<ellipse cx="275.727" cy="370.072" rx="209.932" ry="303.224" fill="#F4D9FF"/>
</g>
<g filter="url(#filter1_d_9464_3113)">
<path d="M135.59 175.46L123.038 248.841L110.486 307.015V343.464V432.052L135.59 452.57L249.041 447.259L363.457 477.674L403.768 420.466L411.01 357.947L416.32 275.635L384.94 198.633L339.319 148.667L307.215 131.77L233.834 127.184L190.143 143.356L135.59 175.46Z" fill="black"/>
<path d="M135.59 175.46L123.038 248.841L110.486 307.015V343.464V432.052L135.59 452.57L249.041 447.259L363.457 477.674L403.768 420.466L411.01 357.947L416.32 275.635L384.94 198.633L339.319 148.667L307.215 131.77L233.834 127.184L190.143 143.356L135.59 175.46Z" stroke="black" stroke-width="0.482769"/>
</g>
<g filter="url(#filter2_d_9464_3113)">
<path d="M142.858 174.863L130.306 248.244L117.754 306.417V342.866V431.454L142.858 451.972L256.309 446.662L370.725 477.076L411.036 419.868L418.277 357.349L423.588 275.037L392.208 198.036L346.586 148.069L314.482 131.172L241.101 126.586L197.411 142.759L142.858 174.863Z" fill="black"/>
<path d="M142.858 174.863L130.306 248.244L117.754 306.417V342.866V431.454L142.858 451.972L256.309 446.662L370.725 477.076L411.036 419.868L418.277 357.349L423.588 275.037L392.208 198.036L346.586 148.069L314.482 131.172L241.101 126.586L197.411 142.759L142.858 174.863Z" stroke="black" stroke-width="0.482769"/>
</g>
<path d="M119.791 464.986L110.391 429.5L131.418 443.984L247.191 437.225L366.18 469.331V500.713L256.344 509.645L119.791 493.712V464.986Z" fill="#232323" stroke="black" stroke-width="0.482769"/>
<path d="M133.417 492.394L119.54 484.911L117.002 492.394L130.037 526.671L133.417 583.637V592.569V635.052L153.21 669.812L-12.3516 716.399H57.3805L544.243 731.666V645.736L404.733 625.397V609.707L389.767 583.637L394.353 565.775V545.257L382.767 531.498L368.525 517.739L377.215 495.774V484.911L371.904 479.359L336.179 484.911L323.869 492.394L270.523 495.774L221.771 492.394H183.383H133.417Z" fill="#E00000" stroke="black" stroke-width="0.841412"/>
<path d="M375.12 499.336L258.689 536.043L127.85 520.897" stroke="black" stroke-width="0.841412" stroke-dasharray="0.42 0.42"/>
<path d="M381.01 528.996L264.58 565.703L133.74 550.557" stroke="black" stroke-width="0.841412" stroke-dasharray="0.42 0.42"/>
<path d="M394.368 560.914L271.648 597.726L133.74 582.537" stroke="black" stroke-width="0.841412" stroke-dasharray="0.42 0.42"/>
<path d="M396.049 595.414L273.329 632.226L135.422 617.037" stroke="black" stroke-width="0.841412" stroke-dasharray="0.42 0.42"/>
<path d="M405.095 625.758L277.288 669.091L143.416 653.883" stroke="black" stroke-width="1.26212" stroke-dasharray="0.42 0.42"/>
<path d="M466.834 636.066L279.57 716.421L127.324 680.346" stroke="black" stroke-width="0.841412" stroke-dasharray="0.42 0.42"/>
<path d="M313.348 329.517L280.303 291.484L330.356 302.737C333.139 303.362 335.768 304.542 338.085 306.206L369.068 328.449C370.058 329.16 370.985 329.954 371.839 330.824L410.911 370.625C415.681 375.484 417.832 382.335 416.697 389.049L411.51 419.709L383.181 459.593L397.441 427.881C398.138 426.331 398.26 424.583 397.785 422.95L394.413 411.359C393.487 408.176 391.829 405.254 389.572 402.827L370.556 382.38L313.348 329.517Z" fill="#D9D9D9" stroke="black" stroke-width="0.482769"/>
<path d="M111.625 332.173L106.289 346.723L109.129 318.535L111.625 298.446L140.109 260.723L175.109 238.274C204.88 231.757 270.891 227.654 282.284 227.654C293.677 227.654 333.216 218.723 337.802 218.723C341.472 218.723 371.999 224.677 386.803 227.654L424.343 231.87L540.668 260.723V324.11L386.803 264.159C367.734 256.354 315.402 237.502 311.733 238.274C308.064 239.047 290.572 241.654 282.284 242.861L182.083 259.561C177.494 260.326 173.139 262.123 169.346 264.817L140.109 285.586L111.625 332.173Z" fill="#D9D9D9" stroke="black" stroke-width="0.482769"/>
<path d="M124.402 238.445L116.91 282.67L119.855 240.494L124.402 220.58L166.238 180.227L209.466 161.401C245.325 154.882 316.241 133.907 329.965 133.907C347.119 133.907 395.257 129.532 400.782 129.532C405.201 129.532 438.734 129.251 455.894 127.219H506.063H570.011L562.859 186.665L443.799 164.451C419.608 160.455 368.984 158.003 364.564 158.776C360.145 159.549 352.716 158.776 329.965 158.776L211.779 180.227L175.493 192.112L124.402 238.445Z" fill="#D9D9D9" stroke="black" stroke-width="0.482769"/>
<path d="M148.464 241.068L114.492 288.662L118.173 263.21L137.736 238.544L160.56 216.082L194.216 194.896C227.452 180.592 293.91 180.591 300.655 180.591C307.399 180.592 355.556 178.821 376.487 180.592L454.738 194.896C462.297 194.896 480.35 200.391 511.455 210.771C527.089 215.989 534.749 217.801 538.2 218.132V216.082C539.508 216.082 543.1 218.602 538.2 218.132V249.156L448.954 228.636L348.662 210.771H280.056L207.671 216.082L177.195 222.709C175.1 223.164 173.115 224.026 171.351 225.246L148.464 241.068Z" fill="#D9D9D9" stroke="black" stroke-width="0.482769"/>
<path d="M219.26 143.786L131.951 203.677L129.637 207.779L135.419 159.07C136.141 152.987 139.926 147.697 145.451 145.051L220.958 108.89C221.722 108.524 222.521 108.236 223.342 108.03L296.267 89.7595L396.602 78.9014C442.553 74.7189 537.212 67.4145 537.827 66.9473C540.253 65.1031 537.932 108.863 537.932 114.171L291.083 130.369L225.513 141.267C223.269 141.64 221.135 142.5 219.26 143.786Z" fill="#D9D9D9" stroke="black" stroke-width="0.482769"/>
<g filter="url(#filter3_d_9464_3113)">
<path d="M244.121 390.525L230.713 403.835L234.76 408.393C239.203 413.397 244.846 418.139 251.538 418.139C257.299 418.139 262.373 413.825 266.447 409.751L272.363 403.835L257.19 390.436C256.593 389.909 255.709 389.872 255.07 390.347L250.802 393.528L246.275 390.343C245.608 389.873 244.7 389.95 244.121 390.525Z" fill="#D10A0A"/>
<path d="M244.121 390.525L230.713 403.835L234.76 408.393C239.203 413.397 244.846 418.139 251.538 418.139C257.299 418.139 262.373 413.825 266.447 409.751L272.363 403.835L257.19 390.436C256.593 389.909 255.709 389.872 255.07 390.347L250.802 393.528L246.275 390.343C245.608 389.873 244.7 389.95 244.121 390.525Z" stroke="#594A23" stroke-width="0.841412"/>
</g>
<path d="M238.391 397.101L237.129 398.994L239.127 400.466L237.129 402.044L239.127 403.411L237.129 404.884L239.127 406.356L237.129 408.144L239.127 409.512L237.97 411.089L238.707 397.416V396.785L238.391 397.101Z" stroke="#EAEAEA" stroke-width="0.210353"/>
<path d="M262.791 397.202L264.053 399.095L262.054 400.568L264.053 402.146L262.054 403.513L264.053 404.985L262.054 406.458L264.053 408.246L262.054 409.613L263.211 411.191L262.475 397.518V396.887L262.791 397.202Z" stroke="#EAEAEA" stroke-width="0.210353"/>
<path d="M248.524 393.376L247.328 396.244L249.221 398.474L247.328 400.864L249.221 402.935L247.328 405.165L249.221 407.396L247.328 410.104L249.221 412.175L248.125 414.565L248.823 393.854V392.898L248.524 393.376Z" stroke="#EAEAEA" stroke-width="0.210353"/>
<path d="M255.392 393.376L256.588 396.244L254.695 398.474L256.588 400.864L254.695 402.935L256.588 405.165L254.695 407.396L256.588 410.104L254.695 412.175L255.791 414.565L255.093 393.854V392.898L255.392 393.376Z" stroke="#EAEAEA" stroke-width="0.210353"/>
<path d="M233.853 404.188L238.809 402.992L242.663 404.885L246.793 402.992L250.372 404.885L254.227 402.992L258.081 404.885L262.761 402.992L266.34 404.885L270.47 403.789L234.679 404.487H233.027L233.853 404.188Z" stroke="#EAEAEA" stroke-width="0.210353"/>
<path d="M112.354 400.886H108.097L98.2053 370.564C95.0758 360.97 95.5048 350.571 99.4139 341.267L112.417 310.321C116.636 300.281 124.589 292.273 134.599 287.984L158.843 277.597L212.637 259.21L263.108 248.397C270.859 246.737 278.923 247.304 286.366 250.033L333.761 267.412L413.693 299.792C418.287 301.653 421.294 306.115 421.294 311.073L418.346 368.483L397.005 338.721C393.741 334.17 389.638 330.285 384.915 327.275L338.886 297.936C335.485 295.769 331.803 294.08 327.942 292.917L294.172 282.747C288.582 281.064 282.713 280.511 276.908 281.122L253.026 283.634C248.842 284.074 244.744 285.113 240.856 286.718L199.396 303.836L140.794 335.796C134.829 339.05 129.699 343.643 125.809 349.214L120.266 357.152C115.115 364.528 112.354 373.307 112.354 382.304V400.886Z" fill="#D9D9D9" stroke="black" stroke-width="0.482769"/>
<path d="M111.443 430.654L114.177 443.591L107.762 420.347V399.206L110.447 376.423C111.086 370.997 113.791 366.025 118.001 362.542L135.844 347.775L168.764 336.942C204.619 330.425 280.75 316.012 294.471 316.012C311.624 316.012 355.813 321.586 361.336 321.586C365.755 321.586 402.521 327.54 420.351 330.517L479.666 336.942L538.963 345.723V381.447L404.362 363.585C381.396 355.78 353.456 351.946 349.037 352.718C344.618 353.491 312.32 346.568 302.338 347.775L170.801 364.741C166.087 365.349 161.439 366.388 156.916 367.844L151.776 369.499C145.424 371.544 139.539 374.823 134.457 379.148C126.594 385.839 120.963 394.772 118.315 404.752L111.443 430.654Z" fill="#D9D9D9" stroke="black" stroke-width="0.482769"/>
<path d="M39.6096 651.237C38.7269 651.237 37.9516 651.105 37.2836 650.843C36.6157 650.592 36.0968 650.181 35.727 649.608C35.3573 649.036 35.1724 648.273 35.1724 647.318C35.1724 646.364 35.3275 645.434 35.6376 644.527C35.9596 643.609 36.401 642.756 36.9616 641.969C37.5222 641.181 38.1782 640.49 38.9297 639.893C39.6931 639.297 40.5161 638.832 41.3988 638.498C42.2814 638.164 43.1999 637.997 44.1541 637.997C45.2157 637.997 46.0804 638.176 46.7484 638.533C47.4164 638.891 47.9054 639.38 48.2155 640.001C48.5376 640.609 48.6986 641.295 48.6986 642.058C48.6986 643.072 48.4541 644.134 47.9651 645.243C47.4641 646.376 46.808 647.396 45.997 648.302C45.1859 649.209 44.2376 649.925 43.1522 650.449C42.0786 650.974 40.8978 651.237 39.6096 651.237ZM41.2377 650.288C41.9415 650.097 42.6333 649.746 43.3132 649.233C43.9931 648.72 44.6074 648.106 45.156 647.39C45.7047 646.674 46.1401 645.923 46.4621 645.135C46.9631 643.931 47.2136 642.798 47.2136 641.736C47.2136 641.569 47.2017 641.408 47.1778 641.253C47.1659 641.098 47.148 640.949 47.1241 640.806C46.9929 640.078 46.6888 639.565 46.2117 639.267C45.7345 638.969 45.1978 638.82 44.6014 638.82C43.9811 638.82 43.349 638.945 42.7049 639.195C42.0607 639.434 41.5061 639.732 41.0409 640.09C40.4684 640.543 39.9376 641.062 39.4485 641.647C38.9595 642.231 38.548 642.851 38.214 643.507C37.9277 644.08 37.6951 644.706 37.5162 645.386C37.3492 646.054 37.2657 646.704 37.2657 647.336C37.2657 647.909 37.3492 648.434 37.5162 648.911C37.6832 649.388 37.9576 649.775 38.3392 650.074C38.7209 650.36 39.2279 650.503 39.8601 650.503C40.2656 650.503 40.7248 650.431 41.2377 650.288ZM50.5093 650.771C50.1753 650.771 49.9249 650.652 49.7579 650.414C49.5909 650.163 49.5074 649.829 49.5074 649.412C49.5074 649.352 49.5074 649.292 49.5074 649.233C49.5074 649.173 49.5134 649.113 49.5253 649.054C49.5849 648.601 49.6863 648.088 49.8294 647.515C49.9845 646.943 50.1634 646.34 50.3662 645.708C50.4855 645.35 50.6346 644.903 50.8135 644.366C51.0043 643.817 51.225 643.233 51.4755 642.613C51.726 641.981 52.0003 641.354 52.2985 640.734C52.6086 640.114 52.9486 639.553 53.3183 639.052C53.6881 638.539 54.0758 638.128 54.4813 637.818C54.8988 637.508 55.3401 637.353 55.8053 637.353C56.187 637.353 56.4494 637.448 56.5926 637.639C56.7357 637.818 56.8073 638.032 56.8073 638.283C56.8073 638.545 56.7595 638.814 56.6641 639.088C56.5687 639.35 56.4733 639.571 56.3779 639.75C56.1631 640.179 55.8828 640.663 55.5369 641.199C55.191 641.736 54.8272 642.237 54.4455 642.702C54.2189 643 53.9386 643.334 53.6046 643.704C53.2706 644.074 52.9545 644.414 52.6564 644.724C52.3701 645.034 52.1613 645.249 52.0301 645.368L51.7439 646.191C51.6604 646.418 51.5769 646.686 51.4934 646.996C51.4218 647.306 51.3562 647.616 51.2966 647.927C51.2489 648.225 51.2071 648.487 51.1713 648.714C51.1594 648.762 51.1534 648.809 51.1534 648.857C51.1534 648.905 51.1534 648.946 51.1534 648.982C51.1534 649.34 51.2906 649.519 51.5649 649.519C51.7319 649.519 51.9407 649.441 52.1912 649.286C52.4297 649.143 52.6563 648.958 52.8711 648.732C53.0977 648.493 53.2587 648.314 53.3541 648.195C53.5927 647.885 53.8193 647.557 54.034 647.211C54.2487 646.853 54.4336 646.525 54.5887 646.227C54.6483 646.131 54.6901 646.084 54.7139 646.084C54.7855 646.084 54.8213 646.185 54.8213 646.388C54.8213 646.483 54.8034 646.597 54.7676 646.728C54.7437 646.847 54.702 646.96 54.6423 647.068C54.4754 647.354 54.2785 647.67 54.0519 648.016C53.8253 648.362 53.5927 648.696 53.3541 649.018C53.1752 649.257 52.9247 649.513 52.6027 649.787C52.2806 650.062 51.9347 650.294 51.5649 650.485C51.1952 650.676 50.8433 650.771 50.5093 650.771ZM52.388 644.348C52.9844 643.644 53.5867 642.893 54.195 642.094C54.8153 641.283 55.3282 640.46 55.7337 639.625C55.7576 639.565 55.8113 639.446 55.8948 639.267C55.9783 639.088 56.0558 638.891 56.1274 638.677C56.1989 638.45 56.2347 638.259 56.2347 638.104C56.2347 637.901 56.1572 637.8 56.0021 637.8H55.8769C55.7218 637.8 55.5369 637.907 55.3222 638.122C55.1195 638.337 54.9107 638.623 54.696 638.981C54.4217 639.434 54.1533 639.959 53.8909 640.555C53.6285 641.14 53.372 641.76 53.1215 642.416C52.8711 643.072 52.6265 643.716 52.388 644.348ZM55.9318 650.771C55.6217 650.771 55.3652 650.628 55.1625 650.342C54.9716 650.044 54.9001 649.585 54.9478 648.964C54.9716 648.702 55.0313 648.368 55.1267 647.962C55.2221 647.557 55.3473 647.121 55.5024 646.656C55.6694 646.179 55.8543 645.72 56.0571 645.279C56.2598 644.825 56.4805 644.426 56.7191 644.08C56.8503 643.901 56.9815 643.794 57.1127 643.758C57.2558 643.71 57.5123 643.686 57.882 643.686H58.7408C58.5381 643.973 58.3234 644.33 58.0967 644.76C57.8701 645.189 57.6614 645.619 57.4705 646.048C57.2797 646.465 57.1306 646.817 57.0232 647.104C56.9994 647.187 56.9516 647.336 56.8801 647.551C56.8085 647.754 56.7429 647.98 56.6833 648.231C56.6236 648.481 56.5938 648.714 56.5938 648.929C56.5938 649.119 56.6296 649.28 56.7012 649.412C56.7727 649.543 56.9039 649.608 57.0948 649.608C57.3214 649.597 57.5659 649.453 57.8283 649.179C58.0908 648.905 58.3532 648.553 58.6156 648.123C58.878 647.694 59.1345 647.247 59.3849 646.782C59.6474 646.304 59.8799 645.863 60.0827 645.458C60.2974 645.04 60.4763 644.718 60.6195 644.491C60.7984 644.217 60.9892 643.978 61.192 643.776C61.3948 643.561 61.6274 643.454 61.8898 643.454C61.9852 643.454 62.1105 643.46 62.2655 643.472C62.4325 643.472 62.5935 643.472 62.7486 643.472C62.9156 643.472 63.0289 643.466 63.0885 643.454C63.017 643.501 62.9335 643.597 62.8381 643.74C62.7426 643.883 62.6472 644.032 62.5518 644.187C62.4683 644.33 62.4027 644.45 62.355 644.545C62.0449 645.165 61.7407 645.792 61.4425 646.424C61.1562 647.044 60.9415 647.634 60.7984 648.195C60.7388 648.41 60.7089 648.595 60.7089 648.75C60.7089 649.107 60.8282 649.286 61.0668 649.286C61.2338 649.286 61.4723 649.167 61.7824 648.929C62.021 648.738 62.2536 648.493 62.4802 648.195C62.7307 647.885 62.9633 647.551 63.178 647.193C63.3927 646.835 63.5776 646.507 63.7327 646.209C63.7804 646.125 63.8221 646.084 63.8579 646.084C63.9295 646.084 63.9652 646.179 63.9652 646.37C63.9652 646.465 63.9474 646.579 63.9116 646.71C63.8877 646.829 63.84 646.949 63.7684 647.068C63.6014 647.354 63.4046 647.67 63.178 648.016C62.9514 648.35 62.7188 648.684 62.4802 649.018C62.3132 649.233 62.0926 649.477 61.8182 649.752C61.5439 650.026 61.2517 650.264 60.9415 650.467C60.6433 650.67 60.3511 650.771 60.0648 650.771C59.8978 650.771 59.7428 650.736 59.5996 650.664C59.4565 650.604 59.3372 650.479 59.2418 650.288C59.1225 650.038 59.0629 649.698 59.0629 649.268C59.0629 649.137 59.0689 649 59.0808 648.857C59.0927 648.702 59.1106 648.547 59.1345 648.392C58.9555 648.642 58.7647 648.875 58.5619 649.09C58.3711 649.304 58.1743 649.519 57.9715 649.734C57.5182 650.187 57.1306 650.473 56.8085 650.592C56.4984 650.712 56.2062 650.771 55.9318 650.771ZM65.6152 650.843C65.0665 650.843 64.655 650.748 64.3807 650.557C64.1183 650.366 63.9871 650.002 63.9871 649.465C63.9871 649.072 64.0586 648.583 64.2018 647.998C64.2972 647.605 64.4344 647.098 64.6133 646.477C64.8041 645.857 65.0188 645.201 65.2574 644.509C65.5079 643.806 65.7643 643.126 66.0267 642.47C66.2891 641.802 66.5456 641.229 66.7961 640.752C67.1062 640.156 67.3507 639.738 67.5296 639.5C67.7086 639.249 67.9054 639.1 68.1201 639.052C68.2155 639.028 68.3288 639.011 68.46 638.999C68.6031 638.987 68.7463 638.981 68.8894 638.981C69.0206 638.981 69.1757 638.981 69.3546 638.981C69.5455 638.981 69.6647 638.975 69.7124 638.963C69.4858 639.13 69.2055 639.488 68.8715 640.036C68.5375 640.573 68.1916 641.223 67.8338 641.987C67.476 642.75 67.136 643.555 66.814 644.402C66.4919 645.249 66.2295 646.066 66.0267 646.853C66.2176 646.519 66.4144 646.197 66.6172 645.887C66.8199 645.577 67.0167 645.302 67.2076 645.064C67.5893 644.599 67.9948 644.211 68.4242 643.901C68.8536 643.591 69.2711 643.436 69.6767 643.436C70.0226 643.436 70.3088 643.561 70.5355 643.811C70.774 644.062 70.8933 644.485 70.8933 645.082C70.8933 645.714 70.7561 646.352 70.4818 646.996C70.2075 647.628 69.8556 648.207 69.4262 648.732C69.4381 648.923 69.4977 649.084 69.6051 649.215C69.7124 649.334 69.8496 649.394 70.0166 649.394C70.1836 649.394 70.3506 649.334 70.5176 649.215C70.6965 649.096 70.8635 648.94 71.0185 648.75C71.1855 648.559 71.3406 648.374 71.4837 648.195C71.7223 647.885 71.9489 647.551 72.1636 647.193C72.3903 646.835 72.5811 646.507 72.7362 646.209C72.7958 646.114 72.8376 646.066 72.8614 646.066C72.933 646.066 72.9688 646.167 72.9688 646.37C72.9688 646.465 72.9509 646.573 72.9151 646.692C72.8912 646.811 72.8495 646.931 72.7898 647.05C72.6467 647.288 72.4797 647.569 72.2889 647.891C72.098 648.213 71.8833 648.529 71.6448 648.839C71.4181 649.149 71.1676 649.418 70.8933 649.644C70.6309 649.859 70.3446 649.996 70.0345 650.056C70.0106 650.056 69.9808 650.062 69.945 650.074C69.9093 650.074 69.8794 650.074 69.8556 650.074C69.6528 650.074 69.456 650.014 69.2651 649.895C69.0743 649.775 68.9371 649.602 68.8536 649.376C68.7105 649.519 68.5674 649.65 68.4242 649.769C68.2811 649.889 68.138 650.002 67.9948 650.109C67.6608 650.336 67.303 650.515 66.9213 650.646C66.5396 650.777 66.1043 650.843 65.6152 650.843ZM66.0267 650.199C66.2295 650.199 66.4621 650.097 66.7245 649.895C66.9988 649.68 67.2613 649.418 67.5117 649.107C67.7742 648.785 67.9948 648.475 68.1737 648.177C68.4481 647.712 68.6807 647.229 68.8715 646.728C69.0624 646.227 69.1578 645.809 69.1578 645.475C69.1578 645.177 69.0683 645.004 68.8894 644.957C68.8656 644.945 68.8357 644.939 68.8 644.939C68.7642 644.939 68.7344 644.939 68.7105 644.939C68.4719 644.939 68.2036 645.058 67.9054 645.297C67.6907 645.464 67.4461 645.708 67.1718 646.03C66.8975 646.352 66.6291 646.716 66.3667 647.121C66.1162 647.515 65.9074 647.915 65.7405 648.32C65.5854 648.726 65.5079 649.102 65.5079 649.447C65.5079 649.495 65.5079 649.549 65.5079 649.608C65.5198 649.668 65.5317 649.728 65.5436 649.787C65.6033 650.062 65.7643 650.199 66.0267 650.199ZM74.0487 650.771C73.7386 650.771 73.4821 650.628 73.2793 650.342C73.0885 650.044 73.0169 649.585 73.0646 648.964C73.0885 648.702 73.1481 648.368 73.2436 647.962C73.339 647.557 73.4642 647.121 73.6193 646.656C73.7863 646.179 73.9712 645.72 74.1739 645.279C74.3767 644.825 74.5974 644.426 74.8359 644.08C74.9671 643.901 75.0984 643.794 75.2296 643.758C75.3727 643.71 75.6291 643.686 75.9989 643.686H76.8577C76.6549 643.973 76.4402 644.33 76.2136 644.76C75.987 645.189 75.7782 645.619 75.5874 646.048C75.3965 646.465 75.2475 646.817 75.1401 647.104C75.1162 647.187 75.0685 647.336 74.997 647.551C74.9254 647.754 74.8598 647.98 74.8002 648.231C74.7405 648.481 74.7107 648.714 74.7107 648.929C74.7107 649.119 74.7465 649.28 74.818 649.412C74.8896 649.543 75.0208 649.608 75.2117 649.608C75.4383 649.597 75.6828 649.453 75.9452 649.179C76.2076 648.905 76.4701 648.553 76.7325 648.123C76.9949 647.694 77.2513 647.247 77.5018 646.782C77.7642 646.304 77.9968 645.863 78.1996 645.458C78.4143 645.04 78.5932 644.718 78.7364 644.491C78.9153 644.217 79.1061 643.978 79.3089 643.776C79.5117 643.561 79.7443 643.454 80.0067 643.454C80.1021 643.454 80.2273 643.46 80.3824 643.472C80.5494 643.472 80.7104 643.472 80.8655 643.472C81.0325 643.472 81.1458 643.466 81.2054 643.454C81.1339 643.501 81.0504 643.597 80.9549 643.74C80.8595 643.883 80.7641 644.032 80.6687 644.187C80.5852 644.33 80.5196 644.45 80.4719 644.545C80.1617 645.165 79.8576 645.792 79.5594 646.424C79.2731 647.044 79.0584 647.634 78.9153 648.195C78.8556 648.41 78.8258 648.595 78.8258 648.75C78.8258 649.107 78.9451 649.286 79.1837 649.286C79.3506 649.286 79.5892 649.167 79.8993 648.929C80.1379 648.738 80.3705 648.493 80.5971 648.195C80.8476 647.885 81.0802 647.551 81.2949 647.193C81.5096 646.835 81.6945 646.507 81.8495 646.209C81.8972 646.125 81.939 646.084 81.9748 646.084C82.0463 646.084 82.0821 646.179 82.0821 646.37C82.0821 646.465 82.0642 646.579 82.0285 646.71C82.0046 646.829 81.9569 646.949 81.8853 647.068C81.7183 647.354 81.5215 647.67 81.2949 648.016C81.0683 648.35 80.8357 648.684 80.5971 649.018C80.4301 649.233 80.2095 649.477 79.9351 649.752C79.6608 650.026 79.3685 650.264 79.0584 650.467C78.7602 650.67 78.468 650.771 78.1817 650.771C78.0147 650.771 77.8597 650.736 77.7165 650.664C77.5734 650.604 77.4541 650.479 77.3587 650.288C77.2394 650.038 77.1798 649.698 77.1798 649.268C77.1798 649.137 77.1857 649 77.1977 648.857C77.2096 648.702 77.2275 648.547 77.2513 648.392C77.0724 648.642 76.8816 648.875 76.6788 649.09C76.488 649.304 76.2911 649.519 76.0884 649.734C75.6351 650.187 75.2475 650.473 74.9254 650.592C74.6153 650.712 74.323 650.771 74.0487 650.771ZM81.1557 650.664C81.2869 650.426 81.436 650.121 81.603 649.752C81.758 649.382 81.9131 648.982 82.0682 648.553C82.2351 648.111 82.3842 647.688 82.5155 647.283C82.8136 646.364 83.1178 645.458 83.4279 644.563C83.75 643.668 84.072 642.893 84.3941 642.237C84.5253 641.951 84.6923 641.605 84.8951 641.199C85.0978 640.782 85.3245 640.352 85.575 639.911C85.8374 639.47 86.1177 639.058 86.4159 638.677C86.726 638.283 87.054 637.967 87.3999 637.728C87.7578 637.49 88.1275 637.37 88.5092 637.37C88.8909 637.37 89.1474 637.454 89.2786 637.621C89.4217 637.788 89.4933 637.997 89.4933 638.247C89.4933 638.521 89.4336 638.814 89.3143 639.124C89.1951 639.434 89.0818 639.69 88.9744 639.893C88.7358 640.346 88.4257 640.859 88.044 641.432C87.6743 641.992 87.2866 642.517 86.8811 643.006C86.6783 643.257 86.4338 643.543 86.1475 643.865C85.8612 644.175 85.575 644.473 85.2887 644.76C85.0143 645.046 84.7758 645.291 84.573 645.493L84.251 646.388C84.5611 645.982 84.8891 645.619 85.235 645.297C85.5809 644.974 85.9566 644.652 86.3622 644.33C86.6604 644.092 86.9705 643.913 87.2926 643.794C87.6266 643.674 87.9307 643.615 88.2051 643.615C88.4078 643.615 88.5927 643.644 88.7597 643.704C88.9386 643.764 89.0698 643.859 89.1533 643.99C89.213 644.074 89.2547 644.163 89.2786 644.259C89.3024 644.354 89.3143 644.45 89.3143 644.545C89.3143 644.736 89.2786 644.921 89.207 645.1C89.0519 645.469 88.8253 645.786 88.5271 646.048C88.2408 646.298 87.9128 646.489 87.5431 646.621C87.4118 646.668 87.2389 646.722 87.0242 646.782C86.8095 646.841 86.6186 646.883 86.4517 646.907C86.4755 647.074 86.4934 647.241 86.5053 647.408C86.5292 647.575 86.553 647.742 86.5769 647.909C86.6485 648.314 86.7379 648.66 86.8453 648.946C86.9646 649.233 87.1494 649.376 87.3999 649.376C87.6266 649.376 87.9307 649.227 88.3124 648.929C88.5867 648.714 88.8253 648.469 89.0281 648.195C89.2666 647.885 89.4933 647.557 89.708 647.211C89.9227 646.853 90.1076 646.525 90.2626 646.227C90.3103 646.143 90.3521 646.102 90.3879 646.102C90.4594 646.102 90.4952 646.197 90.4952 646.388C90.4952 646.495 90.4773 646.615 90.4415 646.746C90.4177 646.865 90.37 646.984 90.2984 647.104C90.1314 647.39 89.9346 647.7 89.708 648.034C89.4933 648.368 89.2666 648.696 89.0281 649.018C88.8969 649.197 88.7299 649.394 88.5271 649.608C88.3243 649.823 88.1096 650.02 87.883 650.199C87.6802 650.354 87.4357 650.497 87.1494 650.628C86.8632 650.748 86.5829 650.807 86.3085 650.807C86.0938 650.807 85.891 650.759 85.7002 650.664C85.5213 650.569 85.3722 650.408 85.2529 650.181C85.1217 649.93 85.0203 649.632 84.9487 649.286C84.8772 648.94 84.8414 648.595 84.8414 648.249C84.8414 648.058 84.8474 647.873 84.8593 647.694C84.8831 647.503 84.9189 647.33 84.9666 647.175C85.0263 646.972 85.0859 646.835 85.1456 646.764C85.2052 646.692 85.2827 646.656 85.3781 646.656C85.7241 646.644 86.064 646.597 86.398 646.513C86.732 646.418 87.0123 646.269 87.2389 646.066C87.5132 645.827 87.6504 645.559 87.6504 645.261C87.6504 645.13 87.6027 645.016 87.5073 644.921C87.4238 644.813 87.2806 644.76 87.0779 644.76C86.8035 644.76 86.5351 644.849 86.2727 645.028C86.0103 645.207 85.7598 645.44 85.5213 645.726C85.2827 646.012 85.0621 646.31 84.8593 646.621C84.6565 646.919 84.4836 647.193 84.3404 647.444C84.2331 647.622 84.1138 647.855 83.9826 648.141C83.8514 648.428 83.7142 648.726 83.5711 649.036C83.4279 649.346 83.2848 649.626 83.1417 649.877C82.9985 650.127 82.8614 650.312 82.7302 650.431C82.5751 650.587 82.4141 650.664 82.2471 650.664H81.1557ZM85.0382 644.277C85.6346 643.585 86.2191 642.857 86.7916 642.094C87.3641 641.33 87.8532 640.549 88.2587 639.75C88.2945 639.69 88.3542 639.565 88.4376 639.374C88.5211 639.183 88.5987 638.975 88.6702 638.748C88.7537 638.521 88.7955 638.325 88.7955 638.158C88.7955 637.943 88.712 637.836 88.545 637.836C88.378 637.836 88.1752 637.979 87.9367 638.265C87.71 638.551 87.4655 638.933 87.2031 639.41C86.9526 639.875 86.6962 640.394 86.4338 640.967C86.1713 641.527 85.9209 642.1 85.6823 642.684C85.4437 643.257 85.229 643.788 85.0382 644.277ZM92.752 650.807C92.2033 650.807 91.7262 650.634 91.3206 650.288C90.927 649.942 90.7302 649.388 90.7302 648.624C90.7302 648.064 90.8316 647.479 91.0343 646.871C91.2371 646.263 91.5234 645.696 91.8931 645.171C92.2748 644.646 92.7341 644.217 93.2708 643.883C93.8076 643.549 94.4099 643.382 95.0779 643.382C95.6266 643.382 96.05 643.489 96.3482 643.704C96.6583 643.907 96.879 644.181 97.0102 644.527C97.1414 644.873 97.207 645.243 97.207 645.636C97.207 645.935 97.1712 646.239 97.0997 646.549C97.04 646.847 96.9506 647.145 96.8313 647.444C97.0341 647.682 97.2905 647.801 97.6006 647.801C97.9346 647.801 98.2448 647.676 98.531 647.426C98.698 647.283 98.8471 647.104 98.9783 646.889C99.1215 646.662 99.2467 646.454 99.354 646.263C99.3898 646.191 99.4316 646.155 99.4793 646.155C99.5389 646.155 99.5687 646.239 99.5687 646.406C99.5687 646.513 99.5509 646.638 99.5151 646.782C99.4912 646.925 99.4316 647.068 99.3362 647.211C99.1572 647.521 98.9724 647.76 98.7815 647.927C98.5907 648.082 98.376 648.207 98.1374 648.302C97.9585 648.374 97.7676 648.41 97.5649 648.41C97.1951 648.41 96.8611 648.296 96.5629 648.07C96.4675 648.273 96.3482 648.481 96.2051 648.696C95.8592 649.28 95.4119 649.781 94.8632 650.199C94.3145 650.604 93.6108 650.807 92.752 650.807ZM93.4318 650.127C93.7062 650.127 93.9686 650.038 94.2191 649.859C94.4815 649.668 94.7201 649.435 94.9348 649.161C95.1495 648.887 95.3343 648.601 95.4894 648.302C95.6564 648.004 95.7936 647.742 95.9009 647.515C95.4954 647.169 95.2926 646.734 95.2926 646.209C95.2926 645.863 95.388 645.595 95.5789 645.404C95.7697 645.213 96.0321 645.13 96.3661 645.153C96.3542 644.879 96.2826 644.652 96.1514 644.473C96.0202 644.295 95.8055 644.205 95.5073 644.205C95.233 644.205 94.9705 644.289 94.7201 644.456C94.4815 644.623 94.2549 644.837 94.0402 645.1C93.8374 645.35 93.6525 645.613 93.4855 645.887C93.3305 646.149 93.1993 646.388 93.0919 646.603C92.9368 646.913 92.7937 647.288 92.6625 647.73C92.5313 648.171 92.4657 648.583 92.4657 648.964C92.4657 649.298 92.5313 649.579 92.6625 649.805C92.8056 650.02 93.0621 650.127 93.4318 650.127ZM100.771 650.771C100.437 650.771 100.187 650.652 100.02 650.414C99.853 650.163 99.7695 649.829 99.7695 649.412C99.7695 649.352 99.7695 649.292 99.7695 649.233C99.7695 649.173 99.7754 649.113 99.7874 649.054C99.847 648.601 99.9484 648.088 100.092 647.515C100.247 646.943 100.426 646.34 100.628 645.708C100.748 645.35 100.897 644.903 101.076 644.366C101.266 643.817 101.487 643.233 101.738 642.613C101.988 641.981 102.262 641.354 102.561 640.734C102.871 640.114 103.211 639.553 103.58 639.052C103.95 638.539 104.338 638.128 104.743 637.818C105.161 637.508 105.602 637.353 106.067 637.353C106.449 637.353 106.712 637.448 106.855 637.639C106.998 637.818 107.069 638.032 107.069 638.283C107.069 638.545 107.022 638.814 106.926 639.088C106.831 639.35 106.735 639.571 106.64 639.75C106.425 640.179 106.145 640.663 105.799 641.199C105.453 641.736 105.089 642.237 104.708 642.702C104.481 643 104.201 643.334 103.867 643.704C103.533 644.074 103.217 644.414 102.918 644.724C102.632 645.034 102.423 645.249 102.292 645.368L102.006 646.191C101.922 646.418 101.839 646.686 101.755 646.996C101.684 647.306 101.618 647.616 101.559 647.927C101.511 648.225 101.469 648.487 101.433 648.714C101.421 648.762 101.416 648.809 101.416 648.857C101.416 648.905 101.416 648.946 101.416 648.982C101.416 649.34 101.553 649.519 101.827 649.519C101.994 649.519 102.203 649.441 102.453 649.286C102.692 649.143 102.918 648.958 103.133 648.732C103.36 648.493 103.521 648.314 103.616 648.195C103.855 647.885 104.081 647.557 104.296 647.211C104.511 646.853 104.696 646.525 104.851 646.227C104.91 646.131 104.952 646.084 104.976 646.084C105.048 646.084 105.083 646.185 105.083 646.388C105.083 646.483 105.065 646.597 105.03 646.728C105.006 646.847 104.964 646.96 104.904 647.068C104.737 647.354 104.541 647.67 104.314 648.016C104.087 648.362 103.855 648.696 103.616 649.018C103.437 649.257 103.187 649.513 102.865 649.787C102.543 650.062 102.197 650.294 101.827 650.485C101.457 650.676 101.105 650.771 100.771 650.771ZM102.65 644.348C103.246 643.644 103.849 642.893 104.457 642.094C105.077 641.283 105.59 640.46 105.996 639.625C106.02 639.565 106.073 639.446 106.157 639.267C106.24 639.088 106.318 638.891 106.389 638.677C106.461 638.45 106.497 638.259 106.497 638.104C106.497 637.901 106.419 637.8 106.264 637.8H106.139C105.984 637.8 105.799 637.907 105.584 638.122C105.382 638.337 105.173 638.623 104.958 638.981C104.684 639.434 104.415 639.959 104.153 640.555C103.891 641.14 103.634 641.76 103.384 642.416C103.133 643.072 102.889 643.716 102.65 644.348ZM110.774 650.771C110.404 650.771 110.148 650.628 110.005 650.342C109.874 650.056 109.808 649.704 109.808 649.286C109.808 648.905 109.844 648.529 109.915 648.159C109.951 647.992 109.987 647.825 110.023 647.658C110.07 647.479 110.124 647.294 110.184 647.104C109.981 647.473 109.766 647.831 109.54 648.177C109.325 648.523 109.104 648.827 108.878 649.09C108.496 649.555 108.09 649.942 107.661 650.253C107.244 650.563 106.826 650.718 106.409 650.718C106.075 650.718 105.788 650.598 105.55 650.36C105.323 650.109 105.21 649.68 105.21 649.072C105.21 648.451 105.317 647.813 105.532 647.157C105.747 646.501 106.045 645.893 106.426 645.332C106.82 644.76 107.279 644.301 107.804 643.955C108.341 643.609 108.925 643.436 109.558 643.436C109.76 643.436 109.981 643.466 110.22 643.525C110.458 643.585 110.679 643.698 110.882 643.865C111.084 644.02 111.222 644.241 111.293 644.527C111.305 644.503 111.317 644.485 111.329 644.473C111.353 644.462 111.371 644.45 111.383 644.438C111.55 644.175 111.74 643.955 111.955 643.776C112.17 643.597 112.408 643.507 112.671 643.507C112.802 643.507 112.987 643.513 113.225 643.525C113.464 643.537 113.637 643.537 113.744 643.525C113.685 643.573 113.601 643.668 113.494 643.811C113.398 643.955 113.309 644.104 113.225 644.259C113.142 644.402 113.076 644.515 113.029 644.599C112.707 645.219 112.414 645.833 112.152 646.442C111.889 647.05 111.687 647.634 111.544 648.195C111.508 648.314 111.484 648.428 111.472 648.535C111.46 648.63 111.454 648.726 111.454 648.821C111.454 649.131 111.555 649.286 111.758 649.286C111.949 649.286 112.188 649.167 112.474 648.929C112.891 648.595 113.255 648.177 113.565 647.676C113.887 647.175 114.168 646.692 114.406 646.227C114.454 646.143 114.496 646.102 114.531 646.102C114.603 646.102 114.639 646.203 114.639 646.406C114.639 646.501 114.621 646.609 114.585 646.728C114.561 646.847 114.52 646.96 114.46 647.068C114.293 647.354 114.072 647.706 113.798 648.123C113.536 648.541 113.237 648.952 112.903 649.358C112.569 649.752 112.217 650.086 111.848 650.36C111.49 650.634 111.132 650.771 110.774 650.771ZM107.214 649.215C107.25 649.227 107.303 649.233 107.375 649.233C107.601 649.233 107.846 649.137 108.108 648.946C108.371 648.756 108.633 648.511 108.896 648.213C109.158 647.903 109.391 647.593 109.593 647.283C110.118 646.448 110.506 645.821 110.756 645.404C111.007 644.986 111.15 644.748 111.186 644.688C111.126 644.485 111.019 644.336 110.864 644.241C110.721 644.145 110.548 644.098 110.345 644.098C110.082 644.098 109.802 644.169 109.504 644.312C109.218 644.456 108.973 644.629 108.77 644.831C108.46 645.141 108.162 645.541 107.876 646.03C107.601 646.519 107.375 647.002 107.196 647.479C107.029 647.956 106.945 648.356 106.945 648.678C106.945 648.976 107.035 649.155 107.214 649.215ZM116.931 642.112C117.003 642.028 117.11 641.891 117.253 641.7C117.396 641.509 117.539 641.301 117.682 641.074C117.837 640.835 117.969 640.621 118.076 640.43C118.183 640.239 118.243 640.108 118.255 640.036C118.016 640.06 117.837 640.006 117.718 639.875C117.599 639.732 117.539 639.559 117.539 639.356C117.539 639.118 117.617 638.861 117.772 638.587C118.022 638.205 118.344 638.015 118.738 638.015C118.881 638.015 119.012 638.05 119.132 638.122C119.394 638.277 119.525 638.533 119.525 638.891C119.525 639.082 119.489 639.285 119.418 639.5C119.358 639.702 119.275 639.905 119.167 640.108C119.096 640.227 118.989 640.4 118.845 640.627C118.714 640.853 118.553 641.086 118.362 641.325C118.171 641.551 117.969 641.748 117.754 641.915C117.539 642.07 117.331 642.148 117.128 642.148C117.092 642.148 117.056 642.148 117.02 642.148C116.997 642.136 116.967 642.124 116.931 642.112ZM120.271 651.022C119.865 651.022 119.483 650.968 119.126 650.861C118.768 650.754 118.476 650.587 118.249 650.36C118.022 650.133 117.909 649.847 117.909 649.501C117.909 649.239 117.987 648.982 118.142 648.732C118.309 648.481 118.541 648.356 118.839 648.356C118.971 648.356 119.09 648.386 119.197 648.445C119.305 648.505 119.376 648.583 119.412 648.678C119.4 648.69 119.37 648.732 119.322 648.803C119.275 648.863 119.245 648.905 119.233 648.929C119.126 649.143 119.072 649.34 119.072 649.519C119.072 649.769 119.161 649.972 119.34 650.127C119.531 650.282 119.776 650.36 120.074 650.36C120.468 650.348 120.807 650.211 121.094 649.948C121.392 649.674 121.541 649.352 121.541 648.982C121.541 648.768 121.493 648.565 121.398 648.374C121.243 648.052 121.034 647.778 120.772 647.551C120.521 647.312 120.277 647.074 120.038 646.835C119.811 646.597 119.645 646.31 119.537 645.976C119.489 645.821 119.466 645.63 119.466 645.404C119.466 645.177 119.495 644.957 119.555 644.742C119.615 644.515 119.704 644.324 119.823 644.169C119.99 643.943 120.241 643.734 120.575 643.543C120.992 643.316 121.481 643.203 122.042 643.203C122.412 643.203 122.74 643.251 123.026 643.346C123.241 643.418 123.426 643.537 123.581 643.704C123.748 643.859 123.831 644.068 123.831 644.33C123.831 644.629 123.736 644.915 123.545 645.189C123.366 645.452 123.104 645.613 122.758 645.672C122.543 645.696 122.352 645.66 122.185 645.565C122.018 645.458 121.959 645.261 122.006 644.974C122.328 644.903 122.561 644.772 122.704 644.581C122.776 644.473 122.811 644.366 122.811 644.259C122.811 644.056 122.728 643.919 122.561 643.847C122.406 643.764 122.257 643.722 122.114 643.722C121.935 643.722 121.762 643.746 121.595 643.794C121.44 643.829 121.297 643.895 121.165 643.99C120.903 644.217 120.772 644.479 120.772 644.778C120.772 644.825 120.778 644.879 120.79 644.939C120.813 644.998 120.831 645.058 120.843 645.118C120.903 645.273 120.992 645.416 121.112 645.547C121.231 645.678 121.35 645.792 121.469 645.887C121.768 646.102 122.072 646.334 122.382 646.585C122.704 646.835 122.943 647.139 123.098 647.497C123.217 647.748 123.277 648.004 123.277 648.267C123.277 648.624 123.187 648.952 123.008 649.251C122.829 649.537 122.626 649.764 122.4 649.93C122.793 649.764 123.175 649.471 123.545 649.054C123.927 648.624 124.255 648.201 124.529 647.783C124.708 647.509 124.869 647.253 125.012 647.014C125.167 646.764 125.322 646.489 125.477 646.191C125.525 646.108 125.567 646.066 125.602 646.066C125.674 646.066 125.71 646.167 125.71 646.37C125.71 646.454 125.692 646.555 125.656 646.674C125.632 646.793 125.591 646.913 125.531 647.032C125.316 647.39 125.113 647.724 124.923 648.034C124.732 648.332 124.499 648.66 124.225 649.018C123.676 649.746 123.092 650.264 122.471 650.575C121.851 650.873 121.118 651.022 120.271 651.022ZM77.238 672.807C76.7847 672.807 76.4388 672.688 76.2003 672.449C75.9617 672.211 75.8007 671.907 75.7172 671.537C75.6337 671.167 75.58 670.785 75.5562 670.392C75.5562 670.165 75.5681 669.897 75.5919 669.587C75.6158 669.277 75.6456 668.978 75.6814 668.692C75.7291 668.394 75.7649 668.173 75.7887 668.03H71.6915C70.9281 668.829 70.2005 669.611 69.5087 670.374C68.8288 671.125 68.1609 671.889 67.5048 672.664H65.7156C66.0258 672.378 66.4313 671.996 66.9323 671.519C67.4452 671.03 68.0237 670.475 68.6678 669.855C69.3119 669.235 69.9799 668.579 70.6717 667.887C71.3754 667.183 72.0792 666.479 72.7829 665.776C73.4867 665.06 74.1487 664.374 74.7689 663.718C75.4011 663.05 75.9617 662.448 76.4507 661.911C76.6893 661.649 76.91 661.386 77.1127 661.124C77.3274 660.849 77.566 660.623 77.8284 660.444C78.0908 660.265 78.4129 660.176 78.7946 660.176H80.0828C79.88 660.366 79.6772 660.688 79.4745 661.142C79.2717 661.595 79.0868 662.084 78.9198 662.609C78.7648 663.134 78.6336 663.611 78.5262 664.04C78.3711 664.684 78.2101 665.382 78.0431 666.134C77.8881 666.885 77.7628 667.63 77.6674 668.37C77.572 669.11 77.5421 669.795 77.5779 670.428C77.5899 670.654 77.6316 670.893 77.7032 671.143C77.7867 671.382 77.9 671.591 78.0431 671.769C78.1982 671.936 78.389 672.02 78.6157 672.02C78.8184 672.02 79.0391 671.942 79.2777 671.787L79.385 671.948C79.2299 672.187 78.9317 672.39 78.4904 672.557C78.061 672.724 77.6435 672.807 77.238 672.807ZM70.0813 663.736C69.8904 663.533 69.7473 663.325 69.6518 663.11C69.5684 662.895 69.5266 662.692 69.5266 662.501C69.5266 662.263 69.5743 662.036 69.6697 661.822C69.7771 661.595 69.9023 661.404 70.0455 661.249C70.3317 660.927 70.6896 660.688 71.119 660.533C71.5484 660.378 72.0016 660.283 72.4788 660.247C72.9678 660.199 73.433 660.176 73.8743 660.176H77.8821C77.6316 660.426 77.2499 660.623 76.737 660.766C76.236 660.897 75.6874 660.999 75.091 661.07C74.4946 661.13 73.9161 661.189 73.3555 661.249C72.8068 661.297 72.3535 661.362 71.9957 661.446C71.3635 661.589 70.8804 661.863 70.5464 662.269C70.2244 662.674 70.0693 663.163 70.0813 663.736ZM72.4788 667.135H75.914C76.0571 666.348 76.2241 665.561 76.415 664.774C76.6177 663.987 76.7967 663.295 76.9517 662.698C76.2241 663.39 75.4786 664.112 74.7152 664.863C73.9638 665.603 73.2183 666.36 72.4788 667.135ZM83.5538 672.789C83.1721 672.789 82.8978 672.628 82.7308 672.306C82.5996 672.02 82.534 671.68 82.534 671.286C82.534 670.845 82.5996 670.356 82.7308 669.819C82.862 669.283 83.0409 668.734 83.2675 668.173C83.351 667.97 83.4584 667.714 83.5896 667.404C83.7327 667.094 83.8997 666.79 84.0906 666.491C83.9236 666.635 83.7268 666.754 83.5001 666.849C83.2735 666.933 83.0528 666.974 82.8381 666.974C82.6711 666.974 82.534 666.951 82.4266 666.903C82.3312 667.094 82.1761 667.404 81.9614 667.833C81.7467 668.263 81.4605 668.77 81.1026 669.354C81.0668 669.414 81.0311 669.414 80.9953 669.354C80.9714 669.283 80.9595 669.187 80.9595 669.068C80.9595 668.972 80.9714 668.871 80.9953 668.764C81.0191 668.656 81.0549 668.555 81.1026 668.459C81.2219 668.233 81.3412 668 81.4605 667.762C81.5797 667.511 81.6871 667.291 81.7825 667.1C81.8779 666.909 81.9316 666.79 81.9435 666.742C81.7288 666.635 81.5678 666.485 81.4605 666.295C81.3531 666.092 81.2994 665.895 81.2994 665.704C81.2994 665.513 81.3412 665.34 81.4247 665.185C81.5201 665.03 81.6573 664.911 81.8362 664.827C81.9435 664.792 82.0449 664.774 82.1403 664.774C82.4028 664.774 82.6175 664.857 82.7845 665.024C82.7725 665.072 82.7606 665.126 82.7487 665.185C82.7487 665.233 82.7487 665.287 82.7487 665.346C82.7487 665.716 82.8978 665.99 83.196 666.169C83.4942 666.348 83.8162 666.414 84.1621 666.366C84.3291 666.128 84.52 665.919 84.7347 665.74C84.9494 665.561 85.182 665.472 85.4324 665.472C85.5637 665.472 85.7485 665.478 85.9871 665.489C86.2376 665.501 86.4165 665.501 86.5238 665.489C86.4523 665.537 86.3688 665.633 86.2734 665.776C86.1779 665.919 86.0885 666.068 86.005 666.223C85.9215 666.378 85.8559 666.497 85.8082 666.581C85.4861 667.201 85.1879 667.821 84.9136 668.442C84.6392 669.05 84.4305 669.634 84.2874 670.195C84.2635 670.302 84.2397 670.404 84.2158 670.499C84.2039 670.583 84.1979 670.672 84.1979 670.768C84.1979 671.125 84.3172 671.304 84.5557 671.304C84.7227 671.304 84.9613 671.185 85.2714 670.946C85.5458 670.72 85.7903 670.469 86.005 670.195C86.2435 669.885 86.4702 669.551 86.6849 669.193C86.8996 668.835 87.0845 668.507 87.2395 668.209C87.2992 668.114 87.3409 668.066 87.3648 668.066C87.4363 668.066 87.4721 668.173 87.4721 668.388C87.4721 668.471 87.4602 668.573 87.4363 668.692C87.4125 668.811 87.3707 668.925 87.3111 669.032C87.1322 669.33 86.9294 669.658 86.7028 670.016C86.4761 670.362 86.2435 670.702 86.005 671.036C85.8499 671.251 85.6293 671.495 85.343 671.769C85.0686 672.044 84.7704 672.282 84.4484 672.485C84.1383 672.688 83.8401 672.789 83.5538 672.789ZM89.1175 672.771C88.7716 672.771 88.5091 672.634 88.3302 672.36C88.2467 672.229 88.1871 672.074 88.1513 671.895C88.1155 671.716 88.0976 671.531 88.0976 671.34C88.0976 671.149 88.1096 670.958 88.1334 670.768C88.1573 670.565 88.1871 670.368 88.2229 670.177C88.2825 669.867 88.3481 669.587 88.4197 669.336C88.5032 669.074 88.5867 668.823 88.6702 668.585V668.567C88.5747 668.746 88.4555 668.943 88.3123 669.157C88.1692 669.36 88.0678 669.509 88.0082 669.605C87.9247 669.736 87.8591 669.801 87.8114 669.801C87.7637 669.801 87.7398 669.748 87.7398 669.64C87.7398 669.402 87.8114 669.139 87.9545 668.853C88.0499 668.662 88.1811 668.418 88.3481 668.12C88.5151 667.809 88.6881 667.475 88.867 667.118C89.0459 666.76 89.201 666.414 89.3322 666.08H88.1334C88.0738 666.08 88.0618 666.032 88.0976 665.937C88.1334 665.841 88.1871 665.752 88.2587 665.668C88.3302 665.573 88.3839 665.525 88.4197 665.525H89.7795C89.9107 665.215 90.0598 664.881 90.2268 664.523C90.4057 664.165 90.6025 663.831 90.8172 663.521C91.0438 663.199 91.2883 662.937 91.5508 662.734C91.8132 662.531 92.0935 662.43 92.3917 662.43C92.5229 662.43 92.6839 662.43 92.8748 662.43C93.0775 662.43 93.2028 662.424 93.2505 662.412C93 662.579 92.7078 662.913 92.3738 663.414C92.0398 663.903 91.676 664.607 91.2824 665.525H93.0895C93.1252 665.525 93.1133 665.573 93.0537 665.668C92.994 665.752 92.9165 665.841 92.8211 665.937C92.7376 666.032 92.6541 666.08 92.5706 666.08H91.0319C90.8768 666.473 90.7039 666.903 90.513 667.368C90.3341 667.833 90.1671 668.292 90.0121 668.746C89.8689 669.187 89.7616 669.593 89.69 669.962C89.6423 670.189 89.6184 670.398 89.6184 670.589C89.6184 671.042 89.7616 671.268 90.0478 671.268C90.2387 671.268 90.4653 671.173 90.7277 670.982C90.9901 670.791 91.2526 670.529 91.515 670.195C91.7535 669.885 91.9802 669.551 92.1949 669.193C92.4215 668.835 92.6123 668.507 92.7674 668.209C92.8151 668.125 92.8569 668.084 92.8926 668.084C92.9642 668.084 93 668.179 93 668.37C93 668.465 92.9821 668.579 92.9463 668.71C92.9225 668.829 92.8748 668.949 92.8032 669.068C92.6362 669.354 92.4394 669.67 92.2128 670.016C91.9861 670.35 91.7535 670.684 91.515 671.018C91.348 671.233 91.1273 671.477 90.853 671.752C90.5906 672.026 90.3043 672.264 89.9942 672.467C89.696 672.67 89.4037 672.771 89.1175 672.771Z" fill="#7E7E7E"/>
<path d="M109.959 430.894L130.087 353.363H239.302L292.605 316.461L382.437 357.463L443.94 334.353L484.942 371.255L536.754 348.517" stroke="#BD5C5C" stroke-width="0.745493"/>
</g>
<rect x="6.70853" y="6.70853" width="537.829" height="716.419" stroke="#A65F29" stroke-width="13.4189"/>
<defs>
<filter id="filter0_n_9464_3113" x="65.7949" y="66.8477" width="419.865" height="606.449" filterUnits="userSpaceOnUse" color-interpolation-filters="sRGB">
<feFlood flood-opacity="0" result="BackgroundImageFix"/>
<feBlend mode="normal" in="SourceGraphic" in2="BackgroundImageFix" result="shape"/>
<feTurbulence type="fractalNoise" baseFrequency="9.5078239440917969 9.5078239440917969" stitchTiles="stitch" numOctaves="3" result="noise" seed="2560" />
<feColorMatrix in="noise" type="luminanceToAlpha" result="alphaNoise" />
<feComponentTransfer in="alphaNoise" result="coloredNoise1">
<feFuncA type="discrete" tableValues="1 1 1 1 1 1 1 1 1 1 1 1 1 1 1 1 1 1 1 1 1 1 1 1 1 1 1 1 1 1 1 1 1 1 1 1 1 1 1 1 1 1 1 1 1 1 1 1 1 1 1 0 0 0 0 0 0 0 0 0 0 0 0 0 0 0 0 0 0 0 0 0 0 0 0 0 0 0 0 0 0 0 0 0 0 0 0 0 0 0 0 0 0 0 0 0 0 0 0 0 "/>
</feComponentTransfer>
<feComposite operator="in" in2="shape" in="coloredNoise1" result="noise1Clipped" />
<feFlood flood-color="rgba(57, 57, 57, 0.38)" result="color1Flood" />
<feComposite operator="in" in2="noise1Clipped" in="color1Flood" result="color1" />
<feMerge result="effect1_noise_9464_3113">
<feMergeNode in="shape" />
<feMergeNode in="color1" />
</feMerge>
</filter>
<filter id="filter1_d_9464_3113" x="110.244" y="124.838" width="312" height="353.111" filterUnits="userSpaceOnUse" color-interpolation-filters="sRGB">
<feFlood flood-opacity="0" result="BackgroundImageFix"/>
<feColorMatrix in="SourceAlpha" type="matrix" values="0 0 0 0 0 0 0 0 0 0 0 0 0 0 0 0 0 0 127 0" result="hardAlpha"/>
<feOffset dx="4.83812" dy="-1.26212"/>
<feGaussianBlur stdDeviation="0.420706"/>
<feComposite in2="hardAlpha" operator="out"/>
<feColorMatrix type="matrix" values="0 0 0 0 0 0 0 0 0 0 0 0 0 0 0 0 0 0 0.25 0"/>
<feBlend mode="normal" in2="BackgroundImageFix" result="effect1_dropShadow_9464_3113"/>
<feBlend mode="normal" in="SourceGraphic" in2="effect1_dropShadow_9464_3113" result="shape"/>
</filter>
<filter id="filter2_d_9464_3113" x="117.512" y="124.24" width="308.827" height="353.111" filterUnits="userSpaceOnUse" color-interpolation-filters="sRGB">
<feFlood flood-opacity="0" result="BackgroundImageFix"/>
<feColorMatrix in="SourceAlpha" type="matrix" values="0 0 0 0 0 0 0 0 0 0 0 0 0 0 0 0 0 0 127 0" result="hardAlpha"/>
<feOffset dx="1.66479" dy="-1.26212"/>
<feGaussianBlur stdDeviation="0.420706"/>
<feComposite in2="hardAlpha" operator="out"/>
<feColorMatrix type="matrix" values="0 0 0 0 0 0 0 0 0 0 0 0 0 0 0 0 0 0 0.25 0"/>
<feBlend mode="normal" in2="BackgroundImageFix" result="effect1_dropShadow_9464_3113"/>
<feBlend mode="normal" in="SourceGraphic" in2="effect1_dropShadow_9464_3113" result="shape"/>
</filter>
<filter id="filter3_d_9464_3113" x="228.873" y="389.594" width="44.5246" height="30.6477" filterUnits="userSpaceOnUse" color-interpolation-filters="sRGB">
<feFlood flood-opacity="0" result="BackgroundImageFix"/>
<feColorMatrix in="SourceAlpha" type="matrix" values="0 0 0 0 0 0 0 0 0 0 0 0 0 0 0 0 0 0 127 0" result="hardAlpha"/>
<feOffset dx="-0.420706" dy="0.841412"/>
<feGaussianBlur stdDeviation="0.420706"/>
<feComposite in2="hardAlpha" operator="out"/>
<feColorMatrix type="matrix" values="0 0 0 0 0 0 0 0 0 0 0 0 0 0 0 0 0 0 0.25 0"/>
<feBlend mode="normal" in2="BackgroundImageFix" result="effect1_dropShadow_9464_3113"/>
<feBlend mode="normal" in="SourceGraphic" in2="effect1_dropShadow_9464_3113" result="shape"/>
</filter>
<clipPath id="clip0_9464_3113">
<rect x="13.418" y="13.418" width="524.41" height="703" fill="white"/>
</clipPath>
</defs>
</svg>
